<?xml version="1.0" encoding="utf-8"?>
<!-- Generator: Adobe Illustrator 27.5.0, SVG Export Plug-In . SVG Version: 6.00 Build 0)  -->
<svg version="1.1" xmlns="http://www.w3.org/2000/svg" xmlns:xlink="http://www.w3.org/1999/xlink" x="0px" y="0px"
	 viewBox="0 0 500 500" style="enable-background:new 0 0 500 500;" xml:space="preserve">
<g id="BACKGROUND">
	<rect x="0.002" y="0.002" style="fill:transparent;" width="499.998" height="500.002"/>
</g>
<g id="OBJECTS">
	<g>
		<g>
			<path style="fill:#FFFFFF;stroke:#2647A3;stroke-linecap:round;stroke-linejoin:round;" d="M268.712,339.517
				c-6.089-0.002-5.93,5.488-11.147,5.485c-5.22,0-6.632-3.863-6.631-9.192l0.012-16.589c0.003-2.881-2.333-5.22-5.217-5.22
				l-15.459-0.056c-5.327,0.004-9.188-1.409-9.188-6.63c-0.006-5.218,5.486-5.058,5.485-11.147
				c-0.003-5.708-3.377-9.293-10.987-9.289c-7.609,0.002-10.979,3.593-10.976,9.299c0.002,6.09,5.494,5.923,5.494,11.145
				c0.002,5.219-3.856,6.633-9.186,6.636l-21.274,0.01c-2.884,0-5.221,2.335-5.221,5.219l-0.032,66.088
				c0,2.883,2.338,5.222,5.218,5.224l66.091,0.03c2.882,0,5.218-2.335,5.221-5.217l0.009-20.147
				c0.002-5.326,1.416-9.186,6.638-9.183c5.216,0.001,5.055,5.491,11.142,5.495c5.708,0.003,9.296-3.368,9.3-10.977
				C278.005,342.889,274.421,339.52,268.712,339.517z"/>
			<path style="fill:#EDF7FF;stroke:#2647A3;stroke-linecap:round;stroke-linejoin:round;" d="M327.397,385.311l0.03-66.09
				c0-2.883-2.335-5.218-5.216-5.22l-17.47-0.009c-5.326-0.002-9.186-1.419-9.182-6.638c0-5.218,5.491-5.055,5.495-11.143
				c0-5.707-3.37-9.298-10.979-9.3c-7.613-0.004-10.981,3.581-10.985,9.291c-0.001,6.088,5.489,5.927,5.485,11.146
				c0,5.219-3.862,6.631-9.192,6.631l-19.266-0.011c-2.88-0.004-5.22,2.333-5.22,5.217l-0.009,16.647
				c-0.004,5.327,1.41,9.188,6.63,9.189c5.218,0.004,5.058-5.486,11.146-5.484c5.709,0.001,9.295,3.374,9.289,10.984
				c-0.002,7.61-3.592,10.978-9.299,10.978c-6.089-0.001-5.925-5.494-11.143-5.494c-5.219-0.001-6.634,3.855-6.638,9.184
				l-0.009,20.088c0,2.882,2.336,5.221,5.218,5.221l66.09,0.032C325.057,390.53,327.396,388.193,327.397,385.311z"/>
			<path style="fill:#EDF7FF;stroke:#2647A3;stroke-linecap:round;stroke-linejoin:round;" d="M322.209,161.822l-66.09-0.03
				c-2.883,0-5.218,2.335-5.22,5.216l-0.009,17.47c-0.002,5.326-1.419,9.187-6.638,9.182c-5.218,0-5.055-5.491-11.143-5.495
				c-5.707,0-9.298,3.37-9.3,10.979c-0.004,7.613,3.581,10.981,9.291,10.985c6.088,0.001,5.927-5.489,11.146-5.485
				c5.219,0,6.631,3.862,6.631,9.192l-0.011,19.266c-0.004,2.88,2.333,5.22,5.217,5.22l16.646,0.009
				c5.327,0.004,9.188-1.41,9.189-6.63c0.004-5.218-5.486-5.058-5.484-11.146c0.001-5.709,3.374-9.295,10.984-9.289
				c7.61,0.002,10.978,3.592,10.978,9.299c-0.001,6.089-5.494,5.925-5.494,11.144c-0.001,5.219,3.854,6.634,9.184,6.638
				l20.088,0.009c2.882,0,5.221-2.336,5.221-5.218l0.032-66.09C327.428,164.163,325.091,161.823,322.209,161.822z"/>
			<path style="fill:#5190F5;stroke:#2647A3;stroke-linecap:round;stroke-linejoin:round;" d="M200.947,313.892
				c5.326,0.004,9.188-1.409,9.188-6.629c0.005-5.219-5.488-5.06-5.485-11.147c0.001-5.708,3.376-9.293,10.985-9.289
				c7.61,0.003,10.979,3.592,10.978,9.298c-0.002,6.09-5.494,5.924-5.494,11.146c-0.002,5.219,3.857,6.633,9.185,6.637h15.39
				c2.882,0,5.218-2.335,5.221-5.216l0.009-20.147c0.002-5.326,1.416-9.187,6.638-9.183c5.216,0.001,5.055,5.49,11.142,5.495
				c5.708,0.002,9.296-3.368,9.3-10.978c0.003-7.613-3.581-10.983-9.29-10.985c-6.089-0.003-5.93,5.488-11.147,5.485
				c-5.22-0.001-6.632-3.863-6.631-9.192l0.012-16.587c0.003-2.882-2.333-5.221-5.217-5.221l-16.647-0.01
				c-5.326-0.003-9.189,1.41-9.189,6.63c-0.007,5.218,5.487,5.059,5.485,11.146c-0.002,5.708-3.376,9.294-10.986,9.289
				c-7.609-0.002-10.979-3.592-10.977-9.297c0.002-6.091,5.494-5.924,5.494-11.146c0.002-5.219-3.855-6.634-9.186-6.637
				l-20.086-0.01c-2.884,0-5.221,2.336-5.221,5.22l-0.032,66.088c0,2.883,2.338,5.222,5.218,5.224L200.947,313.892z"/>
		</g>
		
			<line style="fill-rule:evenodd;clip-rule:evenodd;fill:none;stroke:#2647A3;stroke-linecap:round;stroke-linejoin:round;" x1="28.333" y1="390.53" x2="471.667" y2="390.53"/>
		<g>
			<g id="XMLID_589_">
				<g>
					<path style="fill:#D4E7F7;" d="M330.935,268.244c1.35-1.22,2.6-3.33,2.9-3.73c0.29-0.39,0.5-0.79,1.95-1.5
						c0.85-0.409,2.12-1.22,3.03-1.84c-0.21,0.061-3.58,1.04-4.4,1.3c-0.86,0.271-2.44,1.131-4.27,1.46
						c-1.83,0.33-2.57-0.819-2.131-0.979c0.71-0.25,2.381-0.94,3.75-1.73c0.921-0.52,1.32-0.89,2.44-1.31
						c0.44-0.16,1.28-0.48,2.14-0.81c0,0-1.439-0.19-2.29-0.171c-0.43,0.011-1.47,0.421-3.14,0.75c-1.67,0.33-2.36,0.061-2.69-1.119
						c1.9-0.23,5.211-1.82,5.58-1.82c0.381,0,2.19-0.29,3.42-0.41c1.23-0.13,2.69-0.36,2.95-0.2c0.19,0.11,3.59,2.34,9.4,5.53
						c9.439,0,26.939-7.69,31.92-8.44l13.21-21.93l12.54,10.45c-6.53,8.05-18.62,21.63-19.66,22.25
						c-1.05,0.62-31.55,3.86-36.78,4.27c-2.75,1.25-4.75,0.92-6.18,0.07c-1.44-0.86-3.92-2.63-3.92-2.63s-2.1,1.04-2.39,1.479
						c-0.301,0.44-0.32,0.94-0.82,2.211c-0.5,1.27-2.05,1.5-2.05,1.5s0.319-1.961,0.43-2.33c0.1-0.37,0.23-1.381,0.75-2.04
						c0.28-0.36,1-1.391,1.59-2.261c-0.1,0.04-0.939,0.351-1.84,0.98c-0.63,0.45-0.71,1.05-1.67,2.21
						C333.745,268.624,332.125,268.834,330.935,268.244z"/>
				</g>
				<g>
					<path style="fill:none;stroke:#2647A3;stroke-linecap:round;stroke-linejoin:round;" d="M339.145,258.044
						c0,0-1.431,0.55-2.801,1.061c-0.859,0.329-1.699,0.649-2.14,0.81c-1.12,0.42-1.52,0.79-2.44,1.31
						c-1.369,0.79-3.04,1.48-3.75,1.73c-0.439,0.16,0.301,1.31,2.131,0.979c1.829-0.329,3.409-1.189,4.27-1.46
						c0.82-0.26,4.19-1.239,4.4-1.3"/>
					<path style="fill:none;stroke:#2647A3;stroke-linecap:round;stroke-linejoin:round;" d="M339.955,260.395
						c0,0-0.47,0.329-1.13,0.779h-0.01c-0.91,0.62-2.181,1.431-3.03,1.84c-1.45,0.71-1.66,1.11-1.95,1.5
						c-0.3,0.4-1.55,2.511-2.9,3.73c1.19,0.59,2.81,0.38,3.77-0.79c0.96-1.16,1.04-1.76,1.67-2.21c0.9-0.63,1.74-0.94,1.84-0.98
						c0.01,0,0.01,0,0.01,0"/>
					<path style="fill:none;stroke:#2647A3;stroke-linecap:round;stroke-linejoin:round;" d="M339.145,262.914
						c0,0-0.421,0.62-0.931,1.35c-0.59,0.87-1.309,1.9-1.59,2.261c-0.52,0.659-0.65,1.67-0.75,2.04c-0.11,0.369-0.43,2.33-0.43,2.33
						s1.55-0.23,2.05-1.5c0.5-1.271,0.52-1.771,0.82-2.211c0.29-0.439,2.39-1.479,2.39-1.479s2.48,1.77,3.92,2.63
						c1.43,0.85,3.43,1.18,6.18-0.07c5.23-0.409,35.73-3.649,36.78-4.27c1.04-0.62,13.13-14.2,19.66-22.25l-12.54-10.45
						l-13.21,21.93c-4.98,0.75-22.48,8.44-31.92,8.44c-5.811-3.19-9.21-5.42-9.4-5.53c-0.26-0.16-1.72,0.07-2.95,0.2
						c-1.229,0.12-3.039,0.41-3.42,0.41c-0.369,0-3.68,1.59-5.58,1.82c0.33,1.18,1.021,1.449,2.69,1.119
						c1.67-0.329,2.71-0.739,3.14-0.75c0.851-0.02,2.29,0.171,2.29,0.171"/>
				</g>
			</g>
			<g>
				<path style="fill:#BADBF7;" d="M406.799,222.664c0,0-6.403,0.157-10.332,2.495c-5.49,6.605-12.632,19.838-12.632,19.838
					s7.287,7.5,13.537,11c0,0,9-7.916,14.833-14.083L406.799,222.664z"/>
				<g>
					<path style="fill:#2647A3;" d="M405.213,248.142l6.88-6.34c0.063-0.06,0.165-0.057,0.225,0.007
						c0.058,0.061,0.056,0.157,0,0.218l-6.397,6.822c-0.188,0.203-0.504,0.216-0.707,0.029s-0.217-0.504-0.029-0.707
						C405.191,248.162,405.204,248.15,405.213,248.142z"/>
				</g>
				<g>
					<path style="fill:#2647A3;" d="M405.438,248.012l9.129-2.048c0.085-0.02,0.171,0.033,0.191,0.119
						c0.019,0.081-0.03,0.164-0.109,0.188l-8.953,2.708c-0.264,0.083-0.544-0.064-0.626-0.329c-0.083-0.264,0.065-0.544,0.328-0.626
						C405.408,248.019,405.426,248.015,405.438,248.012z"/>
				</g>
				<path style="fill:none;stroke:#2647A3;stroke-linecap:round;stroke-linejoin:round;" d="M396.467,225.159
					c-5.49,6.605-12.632,19.838-12.632,19.838s7.287,7.5,13.537,11c0,0,3.88-3.413,8.194-7.502"/>
				<g>
					<path style="fill:#2647A3;" d="M406.806,222.853c0,0-0.665,0.034-1.654,0.167c-0.497,0.052-1.07,0.155-1.685,0.256
						c-0.615,0.101-1.259,0.265-1.907,0.398c-0.317,0.091-0.635,0.182-0.947,0.271c-0.31,0.095-0.624,0.164-0.91,0.276
						c-0.571,0.226-1.111,0.418-1.559,0.61c-0.853,0.455-1.421,0.757-1.421,0.757l-0.067,0.036c-0.243,0.13-0.546,0.038-0.676-0.206
						c-0.13-0.244-0.038-0.546,0.206-0.676c0.008-0.004,0.018-0.009,0.025-0.013c0,0,0.633-0.292,1.582-0.73
						c0.485-0.177,1.063-0.347,1.673-0.546c0.306-0.099,0.632-0.151,0.958-0.231c0.326-0.073,0.658-0.147,0.99-0.221
						c0.672-0.099,1.338-0.227,1.968-0.294c0.631-0.066,1.218-0.137,1.724-0.161c1.01-0.076,1.686-0.072,1.686-0.072h0.006
						c0.104,0.001,0.188,0.086,0.188,0.19C406.984,222.766,406.904,222.848,406.806,222.853z"/>
				</g>
			</g>
			<g>
				<polygon style="fill:#FFFFFF;stroke:#213D8C;stroke-linecap:round;stroke-linejoin:round;" points="372.609,366.711 
					373.427,378.739 383.594,379.873 382.4,361.88 				"/>
				
					<rect x="349.92" y="387.895" style="fill:#E1EDF7;stroke:#213D8C;stroke-linecap:round;stroke-linejoin:round;" width="35.3" height="2.636"/>
				<path style="fill:#BADBF7;stroke:#213D8C;stroke-linecap:round;stroke-linejoin:round;" d="M358.427,382.925
					c0,0,0.14-1.849,1.571-2.589c1.435-0.741,9.987-5.548,11.097-6.195c1.108-0.647,1.618-1.527,2.543-1.342
					c0.925,0.186,2.681,2.498,0.51,4.209c-2.174,1.711-14.472,7.582-14.472,7.582L358.427,382.925z"/>
				<path style="fill:#FFFFFF;stroke:#213D8C;stroke-linecap:round;stroke-linejoin:round;" d="M361.282,384.577
					c-0.325-1.064-0.511-1.536,0.738-2.554c1.248-1.018,8.185-4.252,9.803-5.316c1.616-1.064,2.358-1.109,4.346,0.23
					c1.987,1.341,3.295,0.994,5.515,1.317c2.221,0.325,2.447-0.139,2.912,1.11c0.463,1.247,0.624,5.895,0.624,8.529h-25.222
					L361.282,384.577z"/>
				<path style="fill:#FFFFFF;stroke:#213D8C;stroke-linecap:round;stroke-linejoin:round;" d="M349.92,387.895
					c0,0,0.186-2.011,1.896-3.027c1.712-1.018,5.271-2.268,6.566-2.775c1.294-0.508,3.375,2.266,3.976,5.803H349.92z"/>
				<path style="fill:#FFFFFF;stroke:#213D8C;stroke-linecap:round;stroke-linejoin:round;" d="M364.989,381.63
					c0.271,0.434,0.137,1.003-0.3,1.27l0,0c-0.435,0.271-1.002,0.136-1.271-0.297l-2.105-3.394c-0.27-0.437-0.135-1.004,0.3-1.273
					l0,0c0.435-0.268,1.003-0.135,1.272,0.3L364.989,381.63z"/>
				<path style="fill:#FFFFFF;stroke:#213D8C;stroke-linecap:round;stroke-linejoin:round;" d="M368.942,379.255
					c0.271,0.433,0.137,1.004-0.3,1.27l0,0c-0.434,0.271-1.003,0.137-1.27-0.299l-2.105-3.393c-0.27-0.436-0.136-1.005,0.298-1.274
					l0,0c0.437-0.267,1.004-0.135,1.274,0.3L368.942,379.255z"/>
				<path style="fill:#FFFFFF;stroke:#213D8C;stroke-linecap:round;stroke-linejoin:round;" d="M372.825,377.374
					c0.244,0.448,0.077,1.009-0.373,1.251l0,0c-0.448,0.246-1.009,0.08-1.251-0.369l-1.91-3.507
					c-0.244-0.452-0.076-1.013,0.37-1.253l0,0c0.451-0.245,1.012-0.08,1.256,0.369L372.825,377.374z"/>
			</g>
			<g>
				<polygon style="fill:#FFFFFF;stroke:#213D8C;stroke-linecap:round;stroke-linejoin:round;" points="433.948,366.432 
					442.627,374.799 450.925,368.815 437.963,356.278 				"/>
				<path style="fill:#BADBF7;stroke:#213D8C;stroke-linecap:round;stroke-linejoin:round;" d="M434.317,387.97
					c0,0-1.138-1.464-0.573-2.974c0.566-1.513,3.68-10.816,4.067-12.041c0.387-1.224,0.175-2.218,0.984-2.701
					c0.81-0.483,3.664,0.053,3.203,2.778c-0.463,2.728-5.639,15.333-5.639,15.333L434.317,387.97z"/>
				<path style="fill:#FFFFFF;stroke:#213D8C;stroke-linecap:round;stroke-linejoin:round;" d="M437.543,387.277
					c-0.956-0.57-1.41-0.795-1.167-2.388c0.242-1.593,3.213-8.645,3.698-10.52c0.483-1.874,1.004-2.405,3.376-2.746
					c2.373-0.34,3.109-1.475,4.973-2.725c1.864-1.25,1.721-1.746,2.904-1.132c1.18,0.614,4.418,3.95,6.187,5.903l-16.264,15.777
					L437.543,387.277z"/>
				<path style="fill:#FFFFFF;stroke:#213D8C;stroke-linecap:round;stroke-linejoin:round;" d="M427.075,387.963
					c0,0,0.186-2.011,1.896-3.028c1.712-1.017,4.202-2.104,5.497-2.612c1.295-0.508,3.688,2.125,3.969,5.642L427.075,387.963z"/>
				<path style="fill:#FFFFFF;stroke:#213D8C;stroke-linecap:round;stroke-linejoin:round;" d="M439.493,378.717
					c0.49,0.139,0.774,0.652,0.63,1.143l0,0c-0.14,0.492-0.651,0.774-1.142,0.631l-3.838-1.102
					c-0.493-0.142-0.775-0.654-0.634-1.145l0,0c0.143-0.491,0.653-0.773,1.146-0.633L439.493,378.717z"/>
				<path style="fill:#FFFFFF;stroke:#213D8C;stroke-linecap:round;stroke-linejoin:round;" d="M441.265,374.348
					c0.483,0.168,0.734,0.695,0.564,1.177l0,0c-0.167,0.483-0.694,0.737-1.176,0.566l-3.77-1.317
					c-0.484-0.172-0.736-0.699-0.566-1.178l0,0c0.17-0.484,0.696-0.738,1.179-0.568L441.265,374.348z"/>
				<polygon style="fill:#E1EDF7;stroke:#213D8C;stroke-linecap:round;stroke-linejoin:round;" points="441.806,387.894 
					457.514,373.67 459.283,375.624 442.82,390.53 427.074,390.53 427.075,387.894 				"/>
			</g>
			<g>
				<path style="fill:#EDF7FF;stroke:#2647A3;stroke-linecap:round;stroke-linejoin:round;" d="M396.906,297.431
					c0,0-6.882,37.095-7.473,39.763c-0.592,2.669,0.047,7.458,3.81,10.396c3.762,2.938,44.537,24.358,44.537,24.358
					s4.46-4.929,6.623-11.303c-13.19-11.347-33.349-26.44-33.349-26.44s18.677-39.102,20.194-42.871
					c1.517-3.77,2.206-11.355,0.478-16.048L396.906,297.431z"/>
				<polyline style="fill:none;stroke:#2647A3;stroke-width:0.5;stroke-linecap:round;stroke-linejoin:round;" points="
					412.091,293.403 405.124,337.374 442.278,365.424 				"/>
				<path style="fill:none;stroke:#2647A3;stroke-width:0.5;stroke-linecap:round;stroke-linejoin:round;" d="M436.165,370.963
					c0,0,5.052-6.637,6.327-11.974"/>
			</g>
			<g>
				<path style="fill:#FFFFFF;stroke:#2647A3;stroke-linecap:round;stroke-linejoin:round;" d="M390.583,284.666
					c0,0-29.084,24.03-31.25,25.697c-2.166,1.667-4.75,5.75-3.75,10.417s15.584,47.667,15.584,47.667s6.583-0.917,12.333-4.417
					c-2.833-17.167-5.667-42.083-5.667-42.083s39.417-18,43-19.917c3.583-1.917,8.979-7.292,10.667-12L390.583,284.666z"/>
				<polyline style="fill:none;stroke:#2647A3;stroke-width:0.5;stroke-linecap:round;stroke-linejoin:round;" points="
					404.813,291.322 371.25,320.572 378.803,366.332 				"/>
				<path style="fill:none;stroke:#2647A3;stroke-width:0.5;stroke-linecap:round;stroke-linejoin:round;" d="M370.56,366.656
					c0,0,8.133-1.848,12.536-5.122"/>
			</g>
			<g>
				<path style="fill:#FFFFFF;" d="M386.042,213.364c0,0,3.917,3.75,5.167,6.208c1.042,4.167,1.25,7.625,1.25,7.625l16.292-11.459
					l-5.961-5.561l-7.289-5.105L386.042,213.364z"/>
				<path style="fill:#D4E7F7;" d="M395.501,205.072l-9.459,8.292c0,0,3.917,3.75,5.167,6.208c0.375,1.501,0.642,2.907,0.829,4.096
					c4.91-5.307,7.057-12.368,7.818-15.545L395.501,205.072z"/>
				<path style="fill:none;stroke:#2647A3;stroke-linecap:round;stroke-linejoin:round;" d="M386.042,213.364
					c0,0,3.917,3.75,5.167,6.208c1.042,4.167,1.25,7.625,1.25,7.625l16.292-11.459l-5.961-5.561l-7.289-5.105L386.042,213.364z"/>
			</g>
			<g>
				<g id="XMLID_582_">
					<g>
						<path style="fill:#FFFFFF;" d="M398.67,206.287c-0.02,0.021-0.03,0.03-0.05,0.04c-0.4,0.29-0.83,0.53-1.29,0.7
							c-3.21,8.13-13.75,10.17-15.27,10.17c-1.52,0-1.44-1.25-1.68-2.83c-0.26-1.59-1.34-1.46-1.84-2c-0.5-0.55-0.64-2-0.64-2
							c-1.36,0.14-2.091-0.5-2.091-0.5s0-0.32,0-0.92c0-0.6-0.52-1.04-1.02-1.02c-0.5,0.02-1.73-0.421-2.1-1.141
							c-0.381-0.71,0.09-1.06,1.5-3.43c1.399-2.38-0.311-2.47,0.149-10.44c0.47-7.97,6.57-12.88,12.97-13.72
							c7.65-1,13.681,1.67,16.5,10.22C406.49,197.537,402.29,204.018,398.67,206.287z"/>
					</g>
					<path style="fill:#2647A3;" d="M378.769,199.855c0.181,0.785-0.089,1.518-0.605,1.638c-0.517,0.119-1.081-0.421-1.263-1.206
						c-0.182-0.784,0.089-1.517,0.604-1.636C378.021,198.531,378.587,199.071,378.769,199.855z"/>
					<g>
						<path style="fill:none;stroke:#2647A3;stroke-linecap:round;stroke-linejoin:round;" d="M397.33,207.027
							c-3.21,8.13-13.75,10.17-15.27,10.17c-1.52,0-1.44-1.25-1.68-2.83c-0.26-1.59-1.34-1.46-1.84-2c-0.5-0.55-0.64-2-0.64-2
							c-1.36,0.14-2.091-0.5-2.091-0.5s0-0.32,0-0.92c0-0.6-0.52-1.04-1.02-1.02c-0.5,0.02-1.73-0.421-2.1-1.141
							c-0.381-0.71,0.09-1.06,1.5-3.43c1.399-2.38-0.311-2.47,0.149-10.44c0.47-7.97,6.57-12.88,12.97-13.72
							c7.65-1,13.681,1.67,16.5,10.22c2.681,8.12-1.52,14.601-5.14,16.87"/>
						<g>
							<path style="fill:#2647A3;" d="M377.705,209.907c0,0,0.074-0.029,0.205-0.08c0.122-0.046,0.303-0.127,0.521-0.232
								c0.434-0.208,1.001-0.526,1.526-0.906c0.257-0.197,0.532-0.378,0.748-0.591c0.219-0.21,0.455-0.381,0.605-0.574
								c0.325-0.366,0.542-0.611,0.542-0.611l0.018-0.021c0.079-0.088,0.215-0.097,0.304-0.018c0.083,0.074,0.095,0.197,0.032,0.286
								c0,0-0.2,0.281-0.5,0.702c-0.141,0.222-0.365,0.426-0.575,0.674c-0.208,0.253-0.475,0.473-0.728,0.712
								c-0.518,0.464-1.086,0.868-1.533,1.145c-0.224,0.137-0.415,0.249-0.561,0.323c-0.137,0.07-0.215,0.11-0.215,0.11
								c-0.246,0.127-0.548,0.03-0.675-0.216c-0.127-0.246-0.03-0.548,0.216-0.675c0.016-0.008,0.032-0.015,0.048-0.021
								L377.705,209.907z"/>
						</g>
					</g>
				</g>
				<g id="XMLID_583_">
					<g>
						<path style="fill:#5190F5;" d="M394.5,202.827l-0.79-4.189l-2.54-0.9l-0.68-3.3v-0.01c-0.62-0.32-1.11-0.69-1.45-1.061
							c0,0,0.29,1.62,0.21,1.96c-3.39-2.24-3.18-6.189-3.15-6.51c-0.72,1.66-1.96,3.49-4.069,4.8c-0.11-0.75-0.2-1.75-0.261-2.63
							c-1.56,3.25-7.47,6.17-7.47,6.17s-3.09-3.34-2.14-8.36c-2.141,0.811-3.45-0.6-3.45-0.6s3.85-4,10.58-9.54
							c5.97-4.92,15.09-4.46,19.79-0.84l0.11-0.01c-0.051-0.721,0.06-1.601,0.52-2.61c1.21,3.04,5.33,4.58,4.12,9
							c3.34,1.21,4.21,5.33,4.17,7.83c-0.04,2.38-0.91,4.99,0.05,6.67l-0.09,0.37c-0.479-0.11-1.56-0.46-2.49-1.38
							c0.261,6.83-3.8,6.93-2.68,12.49c-3.771-0.23-5.46-3.15-5.46-3.15c0.46-0.17,0.89-0.41,1.29-0.7
							c0.02-0.01,0.03-0.02,0.05-0.04c2.78-2.109,4.03-7,1.86-9.37c-1.91-2.1-4.941,0.31-4.691,2.721v2.52L394.5,202.827z"/>
					</g>
					<g>
						<g>
							<path style="fill:#2647A3;" d="M381.273,191.046c0,0-0.015-0.288-0.037-0.719c0.003-0.23,0.023-0.512,0.04-0.803
								c0.027-0.286,0.08-0.576,0.121-0.871c0.213-1.168,0.615-2.27,0.615-2.27c0.041-0.112,0.165-0.169,0.277-0.128
								c0.104,0.038,0.16,0.146,0.136,0.251l-0.001,0.006c0,0-0.254,1.109-0.317,2.227c-0.027,0.569-0.004,1.095,0.034,1.481
								c0.074,0.425,0.124,0.708,0.124,0.708c0.051,0.273-0.129,0.534-0.401,0.584c-0.271,0.051-0.533-0.129-0.584-0.401
								C381.277,191.092,381.274,191.065,381.273,191.046z"/>
						</g>
						<path style="fill:none;stroke:#2647A3;stroke-linecap:round;stroke-linejoin:round;" d="M386.1,188.817
							c-0.72,1.66-1.96,3.49-4.069,4.8c-0.11-0.75-0.2-1.75-0.261-2.63"/>
						<g>
							<path style="fill:#2647A3;" d="M387.274,184.749c0.001,0,0.015,0.259-0.018,0.668c-0.018,0.202-0.019,0.444-0.055,0.695
								c-0.038,0.251-0.078,0.518-0.119,0.785c-0.056,0.544-0.246,1.055-0.341,1.455c-0.108,0.397-0.181,0.662-0.181,0.662
								c-0.074,0.268-0.35,0.425-0.618,0.352c-0.268-0.074-0.425-0.35-0.352-0.618c0.006-0.022,0.014-0.044,0.022-0.064l0.025-0.059
								c0,0,0.102-0.233,0.253-0.582c0.138-0.355,0.392-0.81,0.515-1.309c0.075-0.247,0.151-0.494,0.222-0.725
								c0.068-0.232,0.101-0.451,0.145-0.64c0.088-0.373,0.113-0.642,0.113-0.642c0.01-0.107,0.105-0.186,0.212-0.176
								c0.097,0.009,0.171,0.088,0.177,0.183V184.749z"/>
						</g>
						<path style="fill:none;stroke:#2647A3;stroke-linecap:round;stroke-linejoin:round;" d="M372.16,188.797
							c-2.141,0.811-3.45-0.6-3.45-0.6s3.85-4,10.58-9.54c5.97-4.92,15.09-4.46,19.79-0.84"/>
						<g>
							<path style="fill:#2647A3;" d="M375.845,186.719c0,0-0.191,0.185-0.479,0.461c-0.143,0.138-0.31,0.3-0.49,0.473
								c-0.177,0.174-0.419,0.323-0.637,0.493c-0.226,0.159-0.445,0.348-0.674,0.465c-0.225,0.13-0.436,0.252-0.615,0.356
								c-0.372,0.18-0.62,0.3-0.62,0.3c-0.249,0.121-0.55,0.017-0.671-0.233c-0.121-0.25-0.017-0.55,0.232-0.671
								c0.024-0.012,0.05-0.021,0.075-0.029l0.023-0.007c0,0,0.245-0.072,0.613-0.18c0.178-0.067,0.386-0.145,0.608-0.229
								c0.233-0.073,0.44-0.205,0.671-0.313c0.223-0.122,0.46-0.211,0.664-0.355c0.206-0.141,0.397-0.272,0.561-0.385
								c0.328-0.226,0.547-0.376,0.547-0.376c0.068-0.047,0.162-0.03,0.209,0.039C375.906,186.588,375.896,186.669,375.845,186.719z
								"/>
						</g>
						<path style="fill:none;stroke:#2647A3;stroke-linecap:round;stroke-linejoin:round;" d="M381.77,190.987
							c-1.56,3.25-7.47,6.17-7.47,6.17s-3.09-3.34-2.14-8.36"/>
						<path style="fill:none;stroke:#2647A3;stroke-linecap:round;stroke-linejoin:round;" d="M399.19,177.808
							c-0.051-0.721,0.06-1.601,0.52-2.61c1.21,3.04,5.33,4.58,4.12,9c3.34,1.21,4.21,5.33,4.17,7.83
							c-0.04,2.38-0.91,4.99,0.05,6.67c0.05,0.09,0.101,0.17,0.16,0.25"/>
						<g>
							<path style="fill:#2647A3;" d="M400.173,181.959c0,0-0.166-0.225-0.367-0.583c-0.205-0.356-0.448-0.851-0.636-1.374
								c-0.087-0.264-0.192-0.524-0.243-0.782c-0.054-0.257-0.135-0.494-0.15-0.707c-0.052-0.425-0.086-0.708-0.086-0.708
								c-0.033-0.275,0.162-0.526,0.438-0.56c0.276-0.034,0.526,0.163,0.56,0.438c0.003,0.023,0.004,0.045,0.004,0.067l-0.001,0.06
								c0,0-0.005,0.247-0.011,0.619c-0.016,0.188,0.029,0.404,0.044,0.641c0.011,0.238,0.074,0.484,0.119,0.736
								c0.102,0.501,0.265,0.994,0.408,1.354c0.143,0.363,0.264,0.588,0.264,0.588c0.053,0.098,0.017,0.22-0.081,0.273
								c-0.09,0.048-0.199,0.022-0.258-0.058L400.173,181.959z"/>
						</g>
						<g>
							<path style="fill:#2647A3;" d="M405.103,198.027c0,0-0.051-0.061-0.138-0.169c-0.086-0.097-0.216-0.284-0.365-0.502
								c-0.146-0.218-0.286-0.462-0.439-0.733c-0.142-0.275-0.297-0.564-0.42-0.869c-0.139-0.296-0.242-0.611-0.341-0.901
								c-0.104-0.289-0.15-0.579-0.215-0.815c-0.049-0.242-0.059-0.452-0.081-0.594c-0.016-0.143-0.025-0.225-0.025-0.225
								c-0.013-0.11,0.066-0.211,0.177-0.223c0.103-0.012,0.195,0.055,0.219,0.153l0.007,0.029c0,0,0.018,0.074,0.05,0.204
								c0.035,0.129,0.065,0.315,0.137,0.532c0.087,0.214,0.158,0.469,0.286,0.727c0.125,0.259,0.252,0.536,0.415,0.797
								c0.146,0.269,0.323,0.52,0.482,0.758c0.165,0.229,0.331,0.449,0.47,0.61c0.14,0.159,0.247,0.29,0.357,0.389
								c0.1,0.097,0.156,0.152,0.156,0.152l0.006,0.005c0.198,0.193,0.203,0.511,0.01,0.709c-0.193,0.198-0.511,0.202-0.709,0.009
								C405.129,198.058,405.115,198.042,405.103,198.027z"/>
						</g>
						<path style="fill:none;stroke:#2647A3;stroke-linecap:round;stroke-linejoin:round;" d="M408.21,199.117
							c0,0-0.09-0.01-0.25-0.05c-0.479-0.11-1.56-0.46-2.49-1.38"/>
						<path style="fill:none;stroke:#2647A3;stroke-linecap:round;stroke-linejoin:round;" d="M405.47,197.688
							c0.261,6.83-3.8,6.93-2.68,12.49c-3.771-0.23-5.46-3.15-5.46-3.15c0.46-0.17,0.89-0.41,1.29-0.7
							c0.02-0.01,0.03-0.02,0.05-0.04c2.78-2.109,4.03-7,1.86-9.37c-1.91-2.1-4.941,0.31-4.691,2.721v2.52l-1.34,0.67l-0.79-4.189
							l-2.54-0.9l-0.68-3.3"/>
						<g>
							<path style="fill:#2647A3;" d="M390.694,193.981c0,0,0.147,0.072,0.402,0.198c0.129,0.063,0.284,0.139,0.463,0.227
								c0.177,0.083,0.369,0.13,0.584,0.209c0.218,0.065,0.438,0.175,0.707,0.212c0.263,0.054,0.54,0.11,0.826,0.168
								c0.29,0.041,0.594,0.042,0.901,0.066c0.31,0.038,0.621,0.01,0.934-0.025c0.31-0.044,0.635-0.022,0.931-0.119
								c0.301-0.079,0.598-0.157,0.884-0.232c0.298-0.051,0.537-0.225,0.792-0.324c0.25-0.115,0.485-0.224,0.703-0.324
								c0.788-0.541,1.316-0.919,1.316-0.919l0.014-0.01c0.048-0.034,0.114-0.023,0.148,0.025c0.032,0.045,0.023,0.108-0.018,0.143
								c0,0-0.503,0.422-1.283,1.047c-0.219,0.122-0.454,0.254-0.704,0.393c-0.258,0.124-0.502,0.324-0.809,0.403
								c-0.298,0.103-0.605,0.209-0.919,0.317c-0.311,0.125-0.653,0.132-0.983,0.203c-0.334,0.063-0.669,0.117-1.003,0.103
								c-0.333,0-0.664,0.022-0.982,0.001c-0.316-0.04-0.623-0.078-0.913-0.114c-0.292-0.021-0.565-0.123-0.82-0.182
								c-0.25-0.07-0.498-0.123-0.685-0.195c-0.185-0.074-0.346-0.138-0.479-0.191c-0.265-0.106-0.416-0.167-0.416-0.167
								c-0.257-0.103-0.381-0.395-0.278-0.651c0.103-0.256,0.395-0.381,0.65-0.278C390.67,193.97,390.684,193.976,390.694,193.981z"
								/>
						</g>
						<path style="fill:none;stroke:#2647A3;stroke-linecap:round;stroke-linejoin:round;" d="M386.1,188.797c0,0,0,0.011,0,0.02
							c-0.029,0.32-0.239,4.27,3.15,6.51c0.08-0.34-0.21-1.96-0.21-1.96c0.34,0.37,0.83,0.74,1.45,1.061v0.01"/>
						<g>
							<path style="fill:#2647A3;" d="M392.216,191.678c-0.004-0.004,0.095,0.069,0.217,0.131c0.117,0.077,0.331,0.167,0.588,0.276
								c0.127,0.058,0.278,0.087,0.432,0.137c0.155,0.044,0.317,0.105,0.495,0.121c0.176,0.027,0.358,0.055,0.544,0.082
								c0.186,0.038,0.378,0.008,0.57,0.017c0.193-0.001,0.387-0.003,0.577-0.004c0.188-0.032,0.374-0.064,0.554-0.095
								c0.363-0.053,0.702-0.115,0.976-0.234c0.561-0.197,0.936-0.329,0.936-0.329l0.023-0.008c0.073-0.026,0.154,0.013,0.181,0.087
								c0.024,0.069-0.008,0.144-0.072,0.175c0,0-0.372,0.179-0.929,0.447c-0.273,0.155-0.621,0.261-1.001,0.361
								c-0.19,0.054-0.386,0.11-0.585,0.167c-0.206,0.024-0.416,0.05-0.626,0.075c-0.211,0.015-0.423,0.067-0.633,0.05
								c-0.211-0.008-0.418-0.017-0.619-0.024c-0.203,0.002-0.394-0.044-0.577-0.075c-0.183-0.037-0.359-0.055-0.516-0.104
								c-0.315-0.094-0.577-0.172-0.772-0.266c-0.2-0.083-0.274-0.128-0.274-0.128l-0.042-0.026
								c-0.237-0.143-0.313-0.451-0.169-0.688c0.142-0.236,0.451-0.312,0.688-0.169C392.192,191.662,392.205,191.67,392.216,191.678
								z"/>
						</g>
						<g>
							<path style="fill:#2647A3;" d="M393.376,190.119c0.001,0.001,0.255,0.06,0.585,0.082c0.169,0.015,0.368,0.04,0.584,0.055
								c0.221-0.004,0.455-0.008,0.689-0.013c0.236-0.009,0.48,0.009,0.692-0.048c0.218-0.04,0.422-0.077,0.597-0.109
								c0.355-0.064,0.592-0.108,0.592-0.108l0.03-0.005c0.08-0.015,0.157,0.038,0.172,0.119c0.013,0.071-0.027,0.14-0.093,0.165
								c0,0-0.233,0.088-0.583,0.221c-0.178,0.066-0.385,0.144-0.606,0.228c-0.221,0.1-0.471,0.128-0.719,0.183
								c-0.25,0.049-0.5,0.099-0.734,0.146c-0.24,0.028-0.469,0.04-0.665,0.057c-0.403,0.039-0.634,0.025-0.633,0.025l-0.054-0.003
								c-0.277-0.017-0.488-0.256-0.471-0.533c0.017-0.277,0.255-0.489,0.533-0.472C393.32,190.109,393.35,190.113,393.376,190.119z
								"/>
						</g>
					</g>
				</g>
			</g>
			<g>
				<path style="fill:#BADBF7;stroke:#2647A3;stroke-linecap:round;stroke-linejoin:round;" d="M408.21,211.447
					c0,0-9.21,5.938-13.647,10.938c0,0-3.25,4.813-4.875,9.063c0.688,2.938,1.438,3.313,1.438,3.313s2.25,22.5,3.188,36.063
					c-2.438,7.25-5.688,14.688-5.688,14.688s4.188,5.875,18.375,8.438s27.063-1.313,27.063-1.313s-0.125-3.688-0.875-7.313
					c-0.188-11.688-3.772-40.875-10.354-57.375c-4.833-8-12.541-13.249-12.541-13.249C409.492,213.33,408.21,211.447,408.21,211.447
					z"/>
				<path style="fill:none;stroke:#2647A3;stroke-width:0.5;stroke-linecap:round;stroke-linejoin:round;" d="M410.292,214.698
					c0,0-13.524,6.551-20.241,18.066"/>
				<path style="fill:none;stroke:#2647A3;stroke-width:0.5;stroke-linecap:round;stroke-linejoin:round;" d="M398.622,222.664
					c0,0,4.713,9.201,7.629,21.034c2.916,11.833,3.25,24.833,3.25,24.833s-2.58,14.322-7.915,24.161"/>
				<g>
					<path style="fill:#2647A3;" d="M393.998,270.434c0,0,0.612-0.487,1.603-1.163c0.491-0.339,1.055-0.749,1.674-1.159
						c0.629-0.396,1.3-0.817,1.97-1.238c0.335-0.211,0.67-0.421,0.999-0.628c0.323-0.218,0.673-0.382,0.996-0.563
						c0.652-0.352,1.261-0.681,1.783-0.963c1.042-0.561,1.736-0.936,1.736-0.936c0.056-0.03,0.126-0.01,0.155,0.047
						c0.029,0.053,0.011,0.119-0.04,0.151l-0.008,0.005c0,0-0.669,0.415-1.671,1.038c-0.5,0.311-1.084,0.673-1.709,1.061
						c-0.31,0.199-0.643,0.381-0.951,0.616c-0.314,0.226-0.633,0.454-0.951,0.684c-0.638,0.457-1.274,0.914-1.871,1.342
						c-0.586,0.442-1.113,0.877-1.574,1.238c-0.921,0.714-1.512,1.245-1.512,1.245c-0.206,0.186-0.523,0.169-0.707-0.037
						c-0.185-0.205-0.168-0.521,0.037-0.706c0.007-0.007,0.015-0.013,0.021-0.02L393.998,270.434z"/>
				</g>
				<g>
					<path style="fill:#BADBF7;" d="M433.188,285.322c0,0-2.875-0.938-7.813-1.313"/>
					<path style="fill:#2647A3;" d="M433.045,285.802c0,0-0.473-0.174-1.169-0.361c-0.352-0.093-0.751-0.231-1.205-0.32
						c-0.45-0.101-0.931-0.208-1.41-0.314c-0.959-0.233-1.944-0.325-2.674-0.457c-0.734-0.114-1.224-0.19-1.224-0.19l-0.01-0.001
						c-0.081-0.013-0.137-0.089-0.124-0.17c0.012-0.077,0.081-0.131,0.157-0.126c0,0,0.496,0.032,1.241,0.081
						c0.743,0.067,1.747,0.072,2.736,0.223c0.497,0.065,0.993,0.131,1.459,0.192c0.467,0.049,0.902,0.155,1.276,0.222
						c0.758,0.136,1.23,0.264,1.23,0.264l0.019,0.005c0.267,0.073,0.425,0.348,0.352,0.615c-0.072,0.267-0.348,0.424-0.614,0.352
						C433.072,285.81,433.058,285.807,433.045,285.802z"/>
				</g>
			</g>
			<path style="fill:#FFFFFF;stroke:#2647A3;stroke-linecap:round;stroke-linejoin:round;" d="M300.197,298.728
				c5.104,1.534,9.21,1.294,10.711-3.704c1.505-4.999-3.8-6.422-2.047-12.253c1.646-5.467,5.904-7.932,13.192-5.738
				c7.287,2.19,9.483,6.599,7.839,12.065c-1.754,5.83-6.966,4.096-8.467,9.091c-1.507,4.996,1.784,7.463,6.885,8.999l16.695,5.014
				c2.76,0.83,5.672-0.736,6.504-3.496l19.039-63.286c0.831-2.763-0.735-5.67-3.493-6.501l-16.729-5.033
				c-5.101-1.535-8.388-4.002-6.884-8.999c1.501-4.996,6.713-3.261,8.468-9.092c1.643-5.465-0.552-9.873-7.84-12.063
				c-7.288-2.192-11.547,0.27-13.192,5.738c-1.753,5.83,3.553,7.256,2.049,12.252c-1.503,4.998-5.608,5.239-10.713,3.707
				l-18.447-5.553c-2.758-0.832-5.671,0.732-6.5,3.494l-4.797,15.94c-1.537,5.101-1.294,9.206,3.706,10.71
				c4.994,1.504,6.422-3.801,12.253-2.048c5.466,1.645,7.931,5.905,5.736,13.193c-2.192,7.288-6.6,9.48-12.063,7.838
				c-5.832-1.753-4.093-6.966-9.093-8.467c-4.997-1.503-7.464,1.782-8.999,6.885l-5.786,19.236
				c-0.831,2.762,0.734,5.673,3.493,6.501L300.197,298.728z"/>
			<g id="XMLID_584_">
				<g>
					<path style="fill:#FFFFFF;" d="M335.48,271.027c1.35-1.22,2.6-3.33,2.899-3.73c0.29-0.39,0.5-0.79,1.95-1.5
						c0.85-0.409,2.12-1.22,3.03-1.84c-0.21,0.061-3.58,1.04-4.4,1.3c-0.86,0.271-2.44,1.131-4.27,1.46
						c-1.83,0.33-2.57-0.819-2.131-0.979c0.71-0.25,2.381-0.94,3.75-1.73c0.921-0.52,1.32-0.89,2.44-1.31
						c0.44-0.16,1.28-0.48,2.14-0.81c0,0-1.439-0.19-2.29-0.171c-0.43,0.011-1.47,0.421-3.14,0.75c-1.67,0.33-2.36,0.061-2.69-1.119
						c1.9-0.23,5.211-1.82,5.58-1.82c0.381,0,2.19-0.29,3.42-0.41c1.23-0.13,2.69-0.36,2.95-0.2c0.19,0.11,3.59,2.34,9.4,5.53
						c9.44,0,26.94-7.69,31.92-8.44l13.21-21.93l12.54,10.45c-6.53,8.05-18.62,21.63-19.66,22.25c-1.05,0.62-31.55,3.86-36.78,4.27
						c-2.75,1.25-4.75,0.92-6.18,0.07c-1.439-0.86-3.92-2.63-3.92-2.63s-2.1,1.04-2.39,1.479c-0.301,0.44-0.32,0.94-0.82,2.211
						c-0.5,1.27-2.05,1.5-2.05,1.5s0.319-1.961,0.43-2.33c0.1-0.37,0.23-1.381,0.75-2.04c0.28-0.36,1-1.391,1.59-2.261
						c-0.1,0.04-0.94,0.351-1.84,0.98c-0.63,0.45-0.71,1.05-1.67,2.21C338.29,271.407,336.67,271.617,335.48,271.027z"/>
				</g>
				<path style="fill:#D4E7F7;" d="M397.435,261.199c4.349-4.828,10.38-11.772,14.355-16.672l-12.54-10.45l-12.669,21.031
					C389.309,257.015,393.136,259.395,397.435,261.199z"/>
				<g>
					<path style="fill:none;stroke:#2647A3;stroke-linecap:round;stroke-linejoin:round;" d="M343.69,260.827
						c0,0-1.431,0.55-2.801,1.061c-0.859,0.329-1.699,0.649-2.14,0.81c-1.12,0.42-1.52,0.79-2.44,1.31
						c-1.369,0.79-3.04,1.48-3.75,1.73c-0.44,0.16,0.301,1.31,2.131,0.979c1.829-0.329,3.409-1.189,4.27-1.46
						c0.82-0.26,4.19-1.239,4.4-1.3"/>
					<path style="fill:none;stroke:#2647A3;stroke-linecap:round;stroke-linejoin:round;" d="M344.5,263.178
						c0,0-0.47,0.329-1.13,0.779h-0.01c-0.91,0.62-2.181,1.431-3.03,1.84c-1.45,0.71-1.66,1.11-1.95,1.5
						c-0.3,0.4-1.55,2.511-2.899,3.73c1.189,0.59,2.81,0.38,3.77-0.79c0.96-1.16,1.04-1.76,1.67-2.21c0.9-0.63,1.74-0.94,1.84-0.98
						c0.01,0,0.01,0,0.01,0"/>
					<path style="fill:none;stroke:#2647A3;stroke-linecap:round;stroke-linejoin:round;" d="M343.69,265.697
						c0,0-0.421,0.62-0.931,1.35c-0.59,0.87-1.31,1.9-1.59,2.261c-0.52,0.659-0.65,1.67-0.75,2.04c-0.11,0.369-0.43,2.33-0.43,2.33
						s1.55-0.23,2.05-1.5c0.5-1.271,0.52-1.771,0.82-2.211c0.29-0.439,2.39-1.479,2.39-1.479s2.48,1.77,3.92,2.63
						c1.43,0.85,3.43,1.18,6.18-0.07c5.23-0.409,35.73-3.649,36.78-4.27c1.04-0.62,13.13-14.2,19.66-22.25l-12.54-10.45
						l-13.21,21.93c-4.98,0.75-22.48,8.44-31.92,8.44c-5.81-3.19-9.21-5.42-9.4-5.53c-0.26-0.16-1.72,0.07-2.95,0.2
						c-1.229,0.12-3.039,0.41-3.42,0.41c-0.369,0-3.68,1.59-5.58,1.82c0.33,1.18,1.021,1.449,2.69,1.119
						c1.67-0.329,2.71-0.739,3.14-0.75c0.851-0.02,2.29,0.171,2.29,0.171"/>
				</g>
			</g>
			<g>
				<path style="fill:#BADBF7;" d="M411.344,225.447c0,0-6.403,0.157-10.332,2.495c-5.49,6.605-12.632,19.838-12.632,19.838
					s7.287,7.5,13.537,11c0,0,9-7.916,14.833-14.083L411.344,225.447z"/>
				<g>
					<path style="fill:#2647A3;" d="M409.758,250.925l6.88-6.34c0.064-0.06,0.165-0.057,0.225,0.007
						c0.058,0.061,0.056,0.157,0,0.218l-6.398,6.822c-0.188,0.203-0.504,0.217-0.707,0.029s-0.217-0.504-0.029-0.707
						C409.736,250.945,409.749,250.933,409.758,250.925z"/>
				</g>
				<g>
					<path style="fill:#2647A3;" d="M409.982,250.795l9.129-2.048c0.085-0.02,0.171,0.033,0.191,0.119
						c0.019,0.081-0.03,0.164-0.109,0.188l-8.953,2.708c-0.264,0.082-0.544-0.065-0.626-0.329c-0.083-0.264,0.064-0.544,0.328-0.626
						C409.953,250.802,409.971,250.798,409.982,250.795z"/>
				</g>
				<path style="fill:none;stroke:#2647A3;stroke-linecap:round;stroke-linejoin:round;" d="M401.012,227.942
					c-5.49,6.605-12.632,19.838-12.632,19.838s7.287,7.5,13.537,11c0,0,3.88-3.413,8.194-7.502"/>
				<g>
					<path style="fill:#2647A3;" d="M411.351,225.636c0,0-0.665,0.034-1.654,0.167c-0.497,0.052-1.07,0.155-1.685,0.256
						c-0.615,0.101-1.259,0.265-1.907,0.398c-0.317,0.091-0.635,0.182-0.947,0.271c-0.31,0.095-0.624,0.164-0.91,0.276
						c-0.571,0.226-1.111,0.419-1.559,0.61c-0.853,0.455-1.421,0.757-1.421,0.757l-0.067,0.036c-0.243,0.13-0.546,0.038-0.676-0.206
						c-0.13-0.244-0.038-0.546,0.206-0.676c0.008-0.004,0.017-0.009,0.025-0.013c0,0,0.633-0.292,1.582-0.729
						c0.485-0.177,1.063-0.347,1.673-0.546c0.306-0.099,0.632-0.151,0.958-0.231c0.326-0.073,0.658-0.147,0.99-0.221
						c0.672-0.099,1.338-0.227,1.968-0.293c0.631-0.066,1.218-0.137,1.724-0.161c1.01-0.076,1.686-0.072,1.686-0.072h0.006
						c0.103,0.001,0.188,0.086,0.188,0.19C411.529,225.549,411.449,225.631,411.351,225.636z"/>
				</g>
			</g>
		</g>
		<g>
			<g>
				<g id="XMLID_588_">
					<g>
						<path style="fill:#D4E7F7;" d="M175.581,154.047c-0.305,0.425-3.787,4.392-4.353,4.837c-0.577,0.444-5.339,2.577-6.288,3.768
							c-0.948,1.191-11.353,22.717-14.268,26.665c-2.924,3.947-5.278,7.254-7.864,8.107c-1.373,0.459-24.059-2.99-24.059-2.99
							l0.951-14.79l18.424,6.428c0,0,3.482-6.025,6.926-10.253c3.434-4.222,13.903-14.358,15.202-18.411
							c1.309-4.05,2.009-5.999,2.388-6.576c0.391-0.587,2.145-2.061,2.724-3.004c0.591-0.946,0.961-1.97,1.224-1.851
							c0.758,0.318,1.583,1.474,0.681,3.539c1.433-1.233,3.091-2.657,3.54-3.018c0.832-0.679,3.195-2.826,3.768-3.375
							c0.573-0.536,1.404-1.067,1.582-0.963c0.145,0.082,0.152,1.104-0.352,2.165l0.01,0.001c0.58-0.927,1.817-0.718,1.913-0.629
							c0.07,0.062-0.136,0.956-0.487,1.814c0,0,0.755,1.54,0.629,1.885c-0.112,0.335-0.706,1.782-0.891,2.177
							c-0.063,0.145-0.27,0.456-0.534,0.829c0,0-0.098,1.505-0.109,1.698C176.325,152.295,175.879,153.62,175.581,154.047z"/>
					</g>
					<g>
						<path style="fill:none;stroke:#2647A3;stroke-linecap:round;stroke-linejoin:round;" d="M164.962,151.51
							c0,0,1.069-0.924,2.307-1.993c1.433-1.233,3.091-2.657,3.54-3.018c0.832-0.679,3.195-2.826,3.768-3.375
							c0.573-0.536,1.404-1.067,1.582-0.963c0.145,0.082,0.152,1.104-0.352,2.165c-0.14,0.314-0.327,0.627-0.578,0.927
							c-1.066,1.304-2.159,3.013-2.579,3.487c-0.41,0.474-1.54,1.469-2.2,2.928"/>
						<path style="fill:none;stroke:#2647A3;stroke-linecap:round;stroke-linejoin:round;" d="M172.304,153.548
							c0,0,1.415-2.83,2.348-3.788c0.934-0.97,1.811-2.666,2.321-3.662c0.096-0.189,0.183-0.387,0.27-0.585
							c0.352-0.858,0.558-1.753,0.487-1.814c-0.096-0.089-1.333-0.298-1.913,0.629"/>
						<path style="fill:none;stroke:#2647A3;stroke-linecap:round;stroke-linejoin:round;" d="M173.664,154.581
							c0,0,0.711-1.381,1.34-2.23c0.396-0.531,1.004-1.326,1.442-1.947c0.265-0.373,0.471-0.685,0.534-0.829
							c0.184-0.395,0.778-1.842,0.891-2.177c0.126-0.345-0.629-1.885-0.629-1.885"/>
						<path style="fill:none;stroke:#2647A3;stroke-linecap:round;stroke-linejoin:round;" d="M176.446,150.403
							c0,0-0.098,1.505-0.109,1.698c-0.012,0.193-0.458,1.519-0.756,1.945c-0.305,0.425-3.787,4.392-4.353,4.837
							c-0.577,0.444-5.339,2.577-6.288,3.768c-0.948,1.191-11.353,22.717-14.268,26.665c-2.924,3.947-5.278,7.254-7.864,8.107
							c-1.373,0.459-24.059-2.99-24.059-2.99l0.951-14.79l18.424,6.428c0,0,3.482-6.025,6.926-10.253
							c3.434-4.222,13.903-14.358,15.202-18.411c1.309-4.05,2.009-5.999,2.388-6.576c0.391-0.587,2.145-2.061,2.724-3.004
							c0.591-0.946,0.961-1.97,1.224-1.851c0.758,0.318,1.583,1.474,0.681,3.539"/>
					</g>
				</g>
				<g>
					<path style="fill:#BADBF7;" d="M117.672,176.171c-3.714,0.148-7.766,0.542-7.766,0.542l-0.947,14.729
						c4.187,2.195,7.987,4.344,13.658,5.983c1.324-3.47,6.046-15.644,6.046-15.644S123.32,178.985,117.672,176.171z"/>
					<g>
						<path style="fill:#2647A3;" d="M117.331,196.11c0,0-2.141-1.066-4.281-2.133c-2.096-1.172-4.191-2.344-4.191-2.344
							c-0.104-0.058-0.142-0.19-0.083-0.294c0.056-0.1,0.182-0.138,0.284-0.088c0,0,2.144,1.038,4.288,2.075
							c2.2,0.938,4.399,1.876,4.399,1.876c0.255,0.106,0.375,0.399,0.269,0.654c-0.107,0.255-0.4,0.376-0.655,0.269
							C117.352,196.12,117.339,196.114,117.331,196.11z"/>
					</g>
					<g>
						<path style="fill:#2647A3;" d="M117.529,196.155c0,0-1.7-0.111-3.399-0.222c-1.701-0.192-3.403-0.385-3.403-0.385
							c-0.119-0.014-0.204-0.121-0.191-0.24c0.013-0.112,0.112-0.195,0.223-0.192c0,0,1.692,0.05,3.385,0.101
							c1.702-0.031,3.404-0.062,3.404-0.062c0.276-0.007,0.506,0.211,0.513,0.488c0.007,0.276-0.211,0.506-0.487,0.513
							C117.561,196.156,117.542,196.156,117.529,196.155z"/>
					</g>
					<path style="fill:none;stroke:#2647A3;stroke-linecap:round;stroke-linejoin:round;" d="M116.459,176.227
						c0.405-0.021,0.81-0.041,1.213-0.056c5.648,2.814,10.991,5.61,10.991,5.61s-4.722,12.174-6.046,15.644
						c-1.869-0.54-3.534-1.136-5.078-1.77"/>
					<g>
						<path style="fill:#2647A3;" d="M109.884,176.401l6.539-0.673c0.275-0.028,0.521,0.171,0.549,0.446
							c0.028,0.275-0.171,0.52-0.446,0.549c-0.009,0.001-0.023,0.002-0.032,0.002l-6.566,0.299
							c-0.172,0.008-0.318-0.126-0.326-0.298C109.594,176.561,109.721,176.419,109.884,176.401z"/>
					</g>
				</g>
			</g>
			<path style="fill:#BADBF7;stroke:#2647A3;stroke-linecap:round;stroke-linejoin:round;" d="M140.677,125.469l25.604,60.927
				c1.12,2.658,4.178,3.905,6.832,2.788l16.107-6.768c4.909-2.064,9.018-2.255,11.037,2.557c2.023,4.809-3.101,6.788-0.742,12.402
				c2.212,5.261,6.711,7.263,13.726,4.314c7.018-2.95,8.732-7.562,6.52-12.825c-2.359-5.611-7.358-3.334-9.379-8.146
				c-2.023-4.81,0.989-7.608,5.901-9.676l17.761-7.462c2.656-1.114,3.907-4.176,2.788-6.835l-6.449-15.345
				c-2.063-4.913-4.862-7.923-9.675-5.9c-4.811,2.021-2.534,7.02-8.146,9.38c-5.263,2.212-9.877,0.495-12.823-6.523
				c-2.949-7.016-0.947-11.511,4.312-13.725c5.614-2.361,7.592,2.767,12.402,0.741c4.813-2.022,4.622-6.125,2.556-11.039
				l-7.782-18.519c-1.118-2.656-4.179-3.905-6.835-2.787l-60.929,25.604C140.808,119.751,139.559,122.812,140.677,125.469z"/>
			<g>
				<polygon style="fill:#FFFFFF;stroke:#213D8C;stroke-linecap:round;stroke-linejoin:round;" points="122.662,348.647 
					121.377,378.739 111.21,379.873 110.636,348.647 				"/>
				
					<rect x="109.584" y="387.895" style="fill:#E1EDF7;stroke:#213D8C;stroke-linecap:round;stroke-linejoin:round;" width="35.3" height="2.636"/>
				<path style="fill:#BADBF7;stroke:#213D8C;stroke-linecap:round;stroke-linejoin:round;" d="M136.377,382.925
					c0,0-0.14-1.849-1.571-2.589c-1.435-0.741-9.987-5.548-11.097-6.195c-1.108-0.647-1.618-1.527-2.543-1.342
					c-0.925,0.186-2.681,2.498-0.51,4.209c2.174,1.711,14.472,7.582,14.472,7.582L136.377,382.925z"/>
				<path style="fill:#FFFFFF;stroke:#213D8C;stroke-linecap:round;stroke-linejoin:round;" d="M133.521,384.577
					c0.325-1.064,0.511-1.536-0.738-2.554c-1.248-1.018-8.185-4.252-9.803-5.316c-1.616-1.064-2.358-1.109-4.346,0.23
					c-1.987,1.341-3.295,0.994-5.515,1.317c-2.221,0.325-2.447-0.139-2.912,1.11c-0.463,1.247-0.624,5.895-0.624,8.529h25.222
					L133.521,384.577z"/>
				<path style="fill:#FFFFFF;stroke:#213D8C;stroke-linecap:round;stroke-linejoin:round;" d="M144.884,387.895
					c0,0-0.186-2.011-1.895-3.027c-1.712-1.018-5.271-2.268-6.566-2.775c-1.294-0.508-3.375,2.266-3.976,5.803H144.884z"/>
				<path style="fill:#FFFFFF;stroke:#213D8C;stroke-linecap:round;stroke-linejoin:round;" d="M129.814,381.63
					c-0.271,0.434-0.137,1.003,0.3,1.27l0,0c0.434,0.271,1.002,0.136,1.27-0.297l2.105-3.394c0.27-0.437,0.135-1.004-0.3-1.273l0,0
					c-0.435-0.268-1.003-0.135-1.272,0.3L129.814,381.63z"/>
				<path style="fill:#FFFFFF;stroke:#213D8C;stroke-linecap:round;stroke-linejoin:round;" d="M125.861,379.255
					c-0.271,0.433-0.137,1.004,0.3,1.27l0,0c0.434,0.271,1.003,0.137,1.27-0.299l2.105-3.393c0.27-0.436,0.136-1.005-0.298-1.274
					l0,0c-0.436-0.267-1.004-0.135-1.274,0.3L125.861,379.255z"/>
				<path style="fill:#FFFFFF;stroke:#213D8C;stroke-linecap:round;stroke-linejoin:round;" d="M121.979,377.374
					c-0.244,0.448-0.077,1.009,0.373,1.251l0,0c0.448,0.246,1.009,0.08,1.251-0.369l1.91-3.507c0.244-0.452,0.076-1.013-0.37-1.253
					l0,0c-0.451-0.245-1.012-0.08-1.256,0.369L121.979,377.374z"/>
			</g>
			<g>
				<polygon style="fill:#FFFFFF;stroke:#213D8C;stroke-linecap:round;stroke-linejoin:round;" points="79.165,343.822 
					67.577,374.799 59.279,368.815 68.717,338.935 				"/>
				<path style="fill:#BADBF7;stroke:#213D8C;stroke-linecap:round;stroke-linejoin:round;" d="M75.887,387.97
					c0,0,1.138-1.464,0.573-2.974c-0.565-1.513-3.68-10.816-4.067-12.041c-0.387-1.224-0.175-2.218-0.984-2.701
					c-0.811-0.483-3.664,0.053-3.203,2.778c0.463,2.728,5.639,15.333,5.639,15.333L75.887,387.97z"/>
				<path style="fill:#FFFFFF;stroke:#213D8C;stroke-linecap:round;stroke-linejoin:round;" d="M72.661,387.277
					c0.956-0.57,1.41-0.795,1.167-2.388c-0.242-1.593-3.213-8.645-3.698-10.52c-0.483-1.874-1.004-2.405-3.376-2.746
					c-2.373-0.34-3.109-1.475-4.973-2.725c-1.864-1.25-1.721-1.746-2.904-1.132c-1.18,0.614-4.418,3.95-6.187,5.903l16.264,15.777
					L72.661,387.277z"/>
				<path style="fill:#FFFFFF;stroke:#213D8C;stroke-linecap:round;stroke-linejoin:round;" d="M83.129,387.963
					c0,0-0.187-2.011-1.896-3.028c-1.712-1.017-4.202-2.104-5.497-2.612c-1.295-0.508-3.688,2.125-3.969,5.642L83.129,387.963z"/>
				<path style="fill:#FFFFFF;stroke:#213D8C;stroke-linecap:round;stroke-linejoin:round;" d="M70.711,378.717
					c-0.49,0.139-0.774,0.652-0.63,1.143l0,0c0.14,0.492,0.651,0.774,1.142,0.631l3.838-1.102c0.493-0.142,0.775-0.654,0.634-1.145
					l0,0c-0.144-0.491-0.653-0.773-1.146-0.633L70.711,378.717z"/>
				<path style="fill:#FFFFFF;stroke:#213D8C;stroke-linecap:round;stroke-linejoin:round;" d="M68.939,374.348
					c-0.482,0.168-0.734,0.695-0.563,1.177l0,0c0.167,0.483,0.694,0.737,1.176,0.566l3.769-1.317
					c0.484-0.172,0.736-0.699,0.566-1.178l0,0c-0.17-0.484-0.696-0.738-1.179-0.568L68.939,374.348z"/>
				<polygon style="fill:#E1EDF7;stroke:#213D8C;stroke-linecap:round;stroke-linejoin:round;" points="68.398,387.894 
					52.69,373.67 50.921,375.624 67.384,390.53 83.13,390.53 83.129,387.894 				"/>
			</g>
			<g>
				<path style="fill:#EDF7FF;stroke:#2647A3;stroke-linecap:round;stroke-linejoin:round;" d="M97.688,231.12l-2.533,13.582
					c-0.155,5.142,0.559,16.347,0.908,18.011c0.35,1.664,9.912,38.633,10.303,43.359c0.392,4.728,2.642,45.368,2.642,45.368
					s9.967,2.534,15.077,1.979c1.148-32.487,4.031-57.739,4.737-67.105c0.705-9.367,0.103-39.318,0.065-40.117
					c-0.038-0.8-5.916-21.01-5.916-21.01L97.688,231.12z"/>
				<path style="fill:none;stroke:#2647A3;stroke-width:0.5;stroke-linecap:round;stroke-linejoin:round;" d="M106.283,229.822
					c0,0,2.49,21.925,3.536,29.453c1.046,7.528,4.21,37.173,4.253,40.871c0.042,3.699,0.77,52.529,0.77,52.529"/>
				<path style="fill:none;stroke:#2647A3;stroke-width:0.5;stroke-linecap:round;stroke-linejoin:round;" d="M108.853,348.647
					c0,0,7.957,2.215,15.321,2.351"/>
				<path style="fill:none;stroke:#2647A3;stroke-width:0.5;stroke-linecap:round;stroke-linejoin:round;" d="M111.938,228.634
					c0,0,1.012,13.802,0.791,16.253c-1.065,5.352-2.965,13.982-2.965,13.982"/>
			</g>
			<g>
				<path style="fill:#FFFFFF;stroke:#2647A3;stroke-linecap:round;stroke-linejoin:round;" d="M97.688,224.947l-2.354,11.25
					c-2.166,4.667-5.917,15.249-6.25,16.916C88.75,254.78,83,292.53,81.5,297.03s-15.417,42.75-15.417,42.75s8.166,6.25,13.083,7.75
					c13.834-29.417,26.418-51.499,30.751-59.833c4.333-8.334,18.69-40.75,18.97-41.5c0.279-0.75-0.304-17-0.304-17L97.688,224.947z"
					/>
				<path style="fill:none;stroke:#2647A3;stroke-width:0.5;stroke-linecap:round;stroke-linejoin:round;" d="M111.417,226.894
					c0,0-6.334,21.138-8.334,28.471c-2,7.333-10.751,35.832-12.167,39.249c-1.416,3.417-19.955,48.598-19.955,48.598"/>
				<path style="fill:none;stroke:#2647A3;stroke-width:0.5;stroke-linecap:round;stroke-linejoin:round;" d="M67.039,337.151
					c0,0,6.445,5.165,13.161,8.188"/>
				<path style="fill:none;stroke:#2647A3;stroke-width:0.5;stroke-linecap:round;stroke-linejoin:round;" d="M117.083,228.026
					c0,0-4.499,13.087-5.666,15.254c-3.084,4.5-8.226,11.688-8.226,11.688"/>
			</g>
			<g>
				<path style="fill:#FFFFFF;" d="M117.417,158.114c0,0-2.458,2.526-2.458,6.791c0,3.305,0.375,9.709,0.375,9.709l-14.833-6.542
					l4.167-15.625L117.417,158.114z"/>
				<path style="fill:#D4E7F7;" d="M104.668,152.447l-1.519,5.694c2.274,2.717,6.409,7.014,11.881,10.023
					c-0.042-1.189-0.071-2.344-0.071-3.26c0-4.265,2.458-6.791,2.458-6.791L104.668,152.447z"/>
				<path style="fill:none;stroke:#2647A3;stroke-linecap:round;stroke-linejoin:round;" d="M117.417,158.114
					c0,0-2.458,2.526-2.458,6.791c0,3.305,0.375,9.709,0.375,9.709l-14.833-6.542l4.167-15.625L117.417,158.114z"/>
			</g>
			<g>
				<path style="fill:#FFFFFF;stroke:#2647A3;stroke-linecap:round;stroke-linejoin:round;" d="M98.192,222.27l-0.505,2.677
					c8,4.313,25.563,5.813,31.199,4.997l-0.697-4.818L98.192,222.27z"/>
				<path style="fill:#FFFFFF;stroke:#2647A3;stroke-linecap:round;stroke-linejoin:round;" d="M124.938,225.599
					c0,0,0.271,3.145,0.313,3.75c0.042,0.604,0.146,1.771,0.958,1.771s2.667-0.333,3.229-0.438l-0.709-5.75L124.938,225.599z"/>
				<path style="fill:#BADBF7;stroke:#2647A3;stroke-linecap:round;stroke-linejoin:round;" d="M119.688,174.614
					c0,0,10.625,14.52,11.563,16.333c1,6.125-1.813,16.5-2.563,19.063c0.813,5.188,2.775,12.938,2.775,12.938
					s-1.4,2.563-2.838,3.563c-11.75,1.75-27.688-3-30.25-4c-1.188-1.5-1.938-3-1.875-3.375s1.75-2.688,1.75-3.375
					s-1.46-11.836-2.83-18.482c-2.357-4.018-3.67-8.768-2.107-14.33s9.125-13.625,9.125-13.625L119.688,174.614z"/>
				<path style="fill:none;stroke:#2647A3;stroke-width:0.5;stroke-linecap:round;stroke-linejoin:round;" d="M114.188,172.507
					c0,0-0.188,8.315,0,9.315s2.063,37.563,2.063,38.313s-2.137,6.079-2.137,6.079"/>
				<g>
					<path style="fill:#BADBF7;" d="M100.813,165.447c0,0,7.316,1.998,9.471,2.718c2.154,0.72,10.654,5.532,10.654,5.532
						l-2.438,8.125c0,0-11.211-8.688-11.98-9.313c-0.77-0.625-7.707-3.063-7.707-3.063L100.813,165.447z"/>
					<path style="fill:#9CCDF7;" d="M110.655,168.307c-0.134-0.054-0.267-0.106-0.372-0.142c-2.154-0.72-9.471-2.718-9.471-2.718
						l-2,4c0,0,6.918,2.431,7.702,3.06L110.655,168.307z"/>
					<path style="fill:none;stroke:#2647A3;stroke-linecap:round;stroke-linejoin:round;" d="M100.813,165.447
						c0,0,7.316,1.998,9.471,2.718c2.154,0.72,10.654,5.532,10.654,5.532l-2.438,8.125c0,0-11.211-8.688-11.98-9.313
						c-0.77-0.625-7.707-3.063-7.707-3.063L100.813,165.447z"/>
				</g>
			</g>
			<g id="XMLID_586_">
				<g>
					<path style="fill:#FFFFFF;" d="M102.732,154.157c0.023,0.016,0.036,0.023,0.058,0.027c0.459,0.186,0.934,0.315,1.421,0.37
						c5.066,7.122,15.788,6.573,17.265,6.209c1.475-0.365,1.098-1.56,0.951-3.151c-0.129-1.605,0.95-1.738,1.307-2.383
						c0.354-0.653,0.141-2.095,0.141-2.095c1.354-0.19,1.91-0.987,1.91-0.987s-0.077-0.311-0.221-0.893
						c-0.145-0.582,0.254-1.135,0.744-1.234c0.49-0.102,1.579-0.824,1.766-1.611c0.199-0.78-0.342-1.007-2.279-2.97
						c-1.93-1.975-0.291-2.472-2.65-10.1c-2.369-7.624-9.469-10.927-15.883-10.206c-7.667,0.864-12.881,4.903-13.566,13.88
						C93.041,147.54,98.673,152.823,102.732,154.157z"/>
				</g>
				<path style="fill:#2647A3;" d="M120.509,143.139c0.013,0.806,0.45,1.452,0.98,1.444c0.53-0.008,0.949-0.668,0.937-1.474
					c-0.012-0.805-0.45-1.451-0.979-1.443C120.916,141.674,120.497,142.333,120.509,143.139z"/>
				<g>
					<path style="fill:none;stroke:#2647A3;stroke-linecap:round;stroke-linejoin:round;" d="M104.211,154.555
						c5.066,7.122,15.788,6.573,17.265,6.209c1.475-0.365,1.098-1.56,0.951-3.151c-0.129-1.605,0.95-1.738,1.307-2.383
						c0.354-0.653,0.141-2.095,0.141-2.095c1.354-0.19,1.91-0.987,1.91-0.987s-0.077-0.311-0.221-0.893
						c-0.145-0.582,0.254-1.135,0.744-1.234c0.49-0.102,1.579-0.824,1.766-1.611c0.199-0.78-0.342-1.007-2.279-2.97
						c-1.93-1.975-0.291-2.472-2.65-10.1c-2.369-7.624-9.469-10.927-15.883-10.206c-7.667,0.864-12.881,4.903-13.566,13.88
						c-0.653,8.526,4.979,13.809,9.038,15.143"/>
					<g>
						<path style="fill:#2647A3;" d="M123.794,153.628c0,0-0.085-0.02-0.234-0.056c-0.16-0.037-0.373-0.1-0.622-0.18
							c-0.501-0.161-1.15-0.417-1.764-0.743c-0.303-0.171-0.614-0.321-0.877-0.517c-0.264-0.191-0.53-0.335-0.719-0.517
							c-0.393-0.337-0.655-0.562-0.655-0.562c-0.09-0.077-0.1-0.213-0.023-0.303c0.072-0.084,0.195-0.099,0.284-0.038l0.023,0.016
							c0,0,0.269,0.185,0.673,0.463c0.192,0.151,0.462,0.26,0.725,0.412c0.261,0.156,0.571,0.266,0.868,0.395
							c0.602,0.243,1.229,0.415,1.7,0.513c0.237,0.049,0.432,0.085,0.562,0.1c0.139,0.018,0.219,0.028,0.219,0.028l0.021,0.003
							c0.274,0.035,0.468,0.286,0.433,0.561c-0.035,0.274-0.287,0.468-0.561,0.433C123.829,153.636,123.812,153.632,123.794,153.628
							z"/>
					</g>
				</g>
			</g>
			<g id="XMLID_585_">
				<g>
					<path style="fill:#5190F5;" d="M115.5,132.367c-1,3.96-3.93,12-11.62,14.66c-0.02-0.14-0.05-0.28-0.09-0.41
						c-0.09-0.31-0.23-0.6-0.41-0.86c-1.1-1.6-3.61-2.27-4.7-0.25c-1.54,2.82,0.351,8.101,5.53,9.051
						c0.63,2.479,2.87,12.06-3.38,19.81s-8.5,16.5-5.41,22.91c-7.17,0.59-17.25-5.25-13.84-17.91c3.42-12.67,7.84-14.75,7.34-25.67
						c-0.5-10.92-1.17-19.62,5.58-23.5c1.31-4.62,9.64-9.33,21-7.54c7.92,1.25,12.13,5.75,11.92,9.75
						c-0.189,3.5-3.55,5.55-3.55,5.55C121.46,137.447,117.47,135.777,115.5,132.367z"/>
				</g>
				<g>
					<path style="fill:none;stroke:#2647A3;stroke-linecap:round;stroke-linejoin:round;" d="M103.88,147.027
						c-0.02-0.14-0.05-0.28-0.09-0.41c-0.09-0.31-0.23-0.6-0.41-0.86c-1.1-1.6-3.61-2.27-4.7-0.25
						c-1.54,2.82,0.351,8.101,5.53,9.051c0.63,2.479,2.87,12.06-3.38,19.81s-8.5,16.5-5.41,22.91c-7.17,0.59-17.25-5.25-13.84-17.91
						c3.42-12.67,7.84-14.75,7.34-25.67c-0.5-10.92-1.17-19.62,5.58-23.5c1.31-4.62,9.64-9.33,21-7.54
						c7.92,1.25,12.13,5.75,11.92,9.75c-0.189,3.5-3.55,5.55-3.55,5.55c-2.41-0.51-6.4-2.18-8.37-5.59c0-0.01-0.01-0.01-0.01-0.02"
						/>
					<path style="fill:none;stroke:#2647A3;stroke-linecap:round;stroke-linejoin:round;" d="M115.96,130.117
						c0,0-0.11,0.88-0.46,2.25c-1,3.96-3.93,12-11.62,14.66"/>
					<g>
						<path style="fill:#2647A3;" d="M103.422,146.278c0,0,0.179-0.176,0.424-0.48c0.265-0.288,0.599-0.779,1.015-1.345
							c0.186-0.301,0.387-0.627,0.599-0.972c0.222-0.341,0.433-0.713,0.621-1.117c0.199-0.398,0.405-0.808,0.614-1.226
							c0.196-0.424,0.349-0.875,0.528-1.316c0.167-0.445,0.357-0.883,0.505-1.328c0.126-0.452,0.251-0.896,0.372-1.327
							c0.121-0.431,0.238-0.848,0.35-1.243c0.105-0.397,0.146-0.785,0.215-1.137c0.246-1.416,0.41-2.359,0.41-2.359l0.003-0.018
							c0.017-0.096,0.108-0.161,0.205-0.144c0.094,0.017,0.157,0.104,0.145,0.197c0,0-0.126,0.961-0.313,2.402
							c-0.055,0.359-0.081,0.755-0.17,1.163c-0.096,0.406-0.197,0.835-0.302,1.278c-0.105,0.444-0.213,0.903-0.324,1.369
							c-0.132,0.46-0.306,0.916-0.459,1.379c-0.164,0.459-0.303,0.929-0.486,1.373c-0.197,0.439-0.391,0.872-0.579,1.29
							c-0.177,0.424-0.379,0.819-0.594,1.184c-0.207,0.368-0.402,0.717-0.583,1.038c-0.413,0.617-0.735,1.137-1.027,1.485
							c-0.272,0.363-0.432,0.531-0.432,0.531l-0.021,0.022c-0.19,0.201-0.506,0.21-0.707,0.02c-0.201-0.19-0.21-0.506-0.02-0.707
							C103.414,146.287,103.418,146.282,103.422,146.278z"/>
					</g>
					<g>
						<path style="fill:#2647A3;" d="M102.908,145.593c0,0,0.053-0.142,0.146-0.39c0.103-0.249,0.205-0.601,0.332-1.025
							c0.119-0.427,0.3-0.913,0.421-1.459c0.117-0.549,0.241-1.134,0.365-1.719c0.063-0.293,0.125-0.587,0.186-0.876
							c0.056-0.29,0.066-0.581,0.1-0.86c0.057-0.56,0.109-1.083,0.155-1.53c0.091-0.899,0.152-1.498,0.152-1.498l0.002-0.024
							c0.011-0.107,0.106-0.186,0.214-0.175c0.103,0.01,0.179,0.1,0.175,0.202c0,0-0.023,0.609-0.057,1.522
							c-0.017,0.458-0.038,0.993-0.06,1.565c-0.017,0.286-0.009,0.585-0.047,0.883c-0.044,0.298-0.088,0.6-0.133,0.903
							c-0.09,0.607-0.18,1.213-0.264,1.782c-0.089,0.569-0.245,1.093-0.343,1.547c-0.107,0.453-0.194,0.835-0.278,1.082
							c-0.077,0.254-0.121,0.398-0.121,0.398c-0.08,0.265-0.359,0.414-0.624,0.334c-0.264-0.081-0.413-0.36-0.333-0.624
							c0.003-0.01,0.006-0.02,0.009-0.029L102.908,145.593z"/>
					</g>
				</g>
			</g>
			<g>
				<g id="XMLID_587_">
					<g>
						<path style="fill:#FFFFFF;" d="M177.8,153.678c-0.3,0.479-3.78,5-4.359,5.52c-0.591,0.52-5.58,3.15-6.521,4.5
							c-0.939,1.35-10.67,25.29-13.54,29.75c-2.88,4.46-5.189,8.19-7.92,9.29c-1.45,0.59-28.9-2.08-28.9-2.08v-16.02l23.061,6.18
							c0,0,3.34-6.74,6.76-11.54c3.41-4.79,14-16.45,15.12-20.91c1.13-4.46,1.75-6.61,2.12-7.26c0.38-0.66,2.17-2.37,2.729-3.43
							c0.57-1.061,0.9-2.19,1.19-2.08c0.84,0.29,1.81,1.479,0.98,3.77c1.461-1.43,3.15-3.08,3.61-3.5c0.851-0.79,3.25-3.27,3.83-3.9
							c0.58-0.619,1.44-1.25,1.64-1.149c0.16,0.08,0.24,1.18-0.229,2.36h0.01c0.561-1.04,1.91-0.9,2.02-0.811
							c0.08,0.061-0.08,1.04-0.4,1.99c0,0,0.92,1.609,0.81,1.99c-0.1,0.369-0.64,1.97-0.81,2.409c-0.06,0.16-0.26,0.511-0.52,0.931
							c0,0,0,1.63,0,1.84C178.48,151.737,178.09,153.197,177.8,153.678z"/>
					</g>
					<path style="fill:#D4E7F7;" d="M128.818,187.923l-12.259-3.285v16.02c0,0,8.402,0.817,16.155,1.447
						C131.879,195.958,129.887,190.523,128.818,187.923z"/>
					<g>
						<path style="fill:none;stroke:#2647A3;stroke-linecap:round;stroke-linejoin:round;" d="M166.17,151.678
							c0,0,1.09-1.07,2.35-2.311c1.461-1.43,3.15-3.08,3.61-3.5c0.851-0.79,3.25-3.27,3.83-3.9c0.58-0.619,1.44-1.25,1.64-1.149
							c0.16,0.08,0.24,1.18-0.229,2.36c-0.13,0.35-0.311,0.699-0.561,1.039c-1.06,1.48-2.119,3.4-2.54,3.94
							c-0.409,0.54-1.559,1.691-2.17,3.31"/>
						<path style="fill:none;stroke:#2647A3;stroke-linecap:round;stroke-linejoin:round;" d="M174.23,153.367
							c0,0,1.329-3.15,2.27-4.25c0.94-1.11,1.77-3,2.25-4.11c0.09-0.21,0.17-0.43,0.25-0.649c0.32-0.95,0.48-1.93,0.4-1.99
							c-0.11-0.09-1.46-0.23-2.02,0.811"/>
						<path style="fill:none;stroke:#2647A3;stroke-linecap:round;stroke-linejoin:round;" d="M175.77,154.388
							c0,0,0.671-1.54,1.29-2.5c0.391-0.601,0.99-1.5,1.421-2.2c0.26-0.42,0.46-0.77,0.52-0.931c0.17-0.439,0.71-2.04,0.81-2.409
							c0.11-0.381-0.81-1.99-0.81-1.99"/>
						<path style="fill:none;stroke:#2647A3;stroke-linecap:round;stroke-linejoin:round;" d="M178.48,149.688c0,0,0,1.63,0,1.84
							c0,0.21-0.391,1.67-0.681,2.15c-0.3,0.479-3.78,5-4.359,5.52c-0.591,0.52-5.58,3.15-6.521,4.5
							c-0.939,1.35-10.67,25.29-13.54,29.75c-2.88,4.46-5.189,8.19-7.92,9.29c-1.45,0.59-28.9-2.08-28.9-2.08v-16.02l23.061,6.18
							c0,0,3.34-6.74,6.76-11.54c3.41-4.79,14-16.45,15.12-20.91c1.13-4.46,1.75-6.61,2.12-7.26c0.38-0.66,2.17-2.37,2.729-3.43
							c0.57-1.061,0.9-2.19,1.19-2.08c0.84,0.29,1.81,1.479,0.98,3.77"/>
					</g>
				</g>
				<g>
					<path style="fill:#BADBF7;" d="M114.13,181.031c-3.995,0.417-8.338,1.124-8.338,1.124v15.952
						c4.667,2.077,8.916,4.131,15.146,5.506c1.188-3.834,5.438-17.291,5.438-17.291S120.417,183.677,114.13,181.031z"/>
					<g>
						<path style="fill:#2647A3;" d="M115.16,202.523c0,0-2.385-0.997-4.77-1.993c-2.343-1.113-4.686-2.225-4.686-2.225
							c-0.108-0.051-0.154-0.181-0.102-0.289c0.049-0.104,0.173-0.15,0.278-0.107c0,0,2.383,0.976,4.766,1.951
							c2.435,0.864,4.871,1.728,4.871,1.728c0.261,0.09,0.399,0.376,0.309,0.637c-0.09,0.261-0.375,0.399-0.636,0.309
							C115.181,202.531,115.167,202.526,115.16,202.523z"/>
					</g>
					<g>
						<path style="fill:#2647A3;" d="M115.36,202.555c0,0-1.841,0.004-3.681,0.008c-1.848-0.084-3.696-0.168-3.696-0.168
							c-0.12-0.005-0.212-0.106-0.207-0.226c0.005-0.113,0.099-0.203,0.21-0.207c0,0,1.83-0.058,3.66-0.115
							c1.834-0.146,3.668-0.292,3.668-0.292c0.275-0.024,0.518,0.18,0.542,0.455c0.024,0.275-0.18,0.518-0.455,0.542
							C115.39,202.554,115.373,202.555,115.36,202.555z"/>
					</g>
					<path style="fill:none;stroke:#2647A3;stroke-linecap:round;stroke-linejoin:round;" d="M112.826,181.176
						c0.435-0.051,0.871-0.1,1.304-0.145c6.287,2.646,12.245,5.291,12.245,5.291s-4.25,13.457-5.438,17.291
						c-2.053-0.453-3.891-0.98-5.6-1.558"/>
					<g>
						<path style="fill:#2647A3;" d="M105.75,181.846l7.009-1.165c0.272-0.045,0.53,0.139,0.575,0.412
							c0.045,0.273-0.139,0.53-0.411,0.575c-0.008,0.001-0.021,0.003-0.029,0.004l-7.06,0.793c-0.171,0.02-0.326-0.104-0.345-0.276
							C105.47,182.023,105.587,181.873,105.75,181.846z"/>
					</g>
				</g>
			</g>
		</g>
		<g>
			<path style="fill:#BADBF7;" d="M171.089,220.967h-2.236v-2.233c0-0.72-0.582-1.304-1.303-1.304c-0.719,0-1.303,0.584-1.303,1.304
				v2.233h-2.234c-0.719,0-1.303,0.584-1.303,1.303c0,0.72,0.584,1.304,1.303,1.304h2.234v2.235c0,0.719,0.584,1.303,1.303,1.303
				c0.721,0,1.303-0.584,1.303-1.303v-2.235h2.236c0.719,0,1.303-0.584,1.303-1.304
				C172.392,221.551,171.808,220.967,171.089,220.967z"/>
			<path style="fill:#FFD373;" d="M295.236,123.973H293v-2.233c0-0.72-0.582-1.304-1.303-1.304c-0.719,0-1.303,0.584-1.303,1.304
				v2.233h-2.234c-0.719,0-1.303,0.584-1.303,1.303c0,0.72,0.584,1.304,1.303,1.304h2.234v2.235c0,0.719,0.584,1.303,1.303,1.303
				c0.721,0,1.303-0.584,1.303-1.303v-2.235h2.236c0.719,0,1.303-0.584,1.303-1.304
				C296.539,124.557,295.955,123.973,295.236,123.973z"/>
			<path style="fill:#FF879F;" d="M373.984,79.353l-1.582-1.581l1.58-1.58c0.509-0.508,0.51-1.333,0-1.843
				c-0.508-0.508-1.334-0.508-1.843,0.001l-1.579,1.579l-1.58-1.58c-0.508-0.508-1.334-0.508-1.842,0
				c-0.51,0.509-0.51,1.335-0.001,1.843l1.58,1.58l-1.581,1.581c-0.508,0.508-0.508,1.334,0,1.843c0.51,0.509,1.334,0.508,1.843,0
				l1.58-1.581l1.581,1.581c0.509,0.509,1.335,0.509,1.844,0C374.492,80.687,374.492,79.86,373.984,79.353z"/>
			<path style="fill:none;stroke:#FF879F;stroke-miterlimit:10;" d="M455.32,205.072c0,2.429-1.969,4.396-4.396,4.396
				c-2.428,0-4.395-1.967-4.395-4.396c0-2.427,1.967-4.395,4.395-4.395C453.352,200.677,455.32,202.645,455.32,205.072z"/>
			<path style="fill:none;stroke:#FF879F;stroke-miterlimit:10;" d="M156.311,341.246c0,2.429-1.969,4.396-4.396,4.396
				c-2.428,0-4.395-1.967-4.395-4.396c0-2.427,1.967-4.396,4.395-4.396C154.342,336.851,156.311,338.819,156.311,341.246z"/>
			<polygon style="fill:none;stroke:#2E7EFB;stroke-linejoin:round;stroke-miterlimit:10;" points="145.362,62.608 149.835,64.886 
				145.626,67.619 			"/>
			<polygon style="fill:none;stroke:#2E7EFB;stroke-linejoin:round;stroke-miterlimit:10;" points="341.455,348.492 345.926,350.77 
				341.719,353.503 			"/>
			<path style="fill:none;stroke:#FF879F;stroke-miterlimit:10;" d="M62.064,261.927c3.984,0,3.984,3.749,7.971,3.749
				c3.986,0,3.986-3.749,7.975-3.749c3.988,0,3.988,3.749,7.975,3.749c3.988,0,3.988-3.749,7.975-3.749
				c3.99,0,3.99,3.749,7.98,3.749c3.988,0,3.988-3.749,7.979-3.749"/>
			<path style="fill:none;stroke:#2E7EFB;stroke-linecap:round;stroke-linejoin:round;stroke-miterlimit:10;" d="M356.206,152.601
				c3.986,0,3.986,3.75,7.973,3.75c3.986,0,3.986-3.75,7.973-3.75c3.988,0,3.988,3.75,7.977,3.75c3.986,0,3.986-3.75,7.973-3.75
				c3.992,0,3.992,3.75,7.982,3.75c3.988,0,3.988-3.75,7.978-3.75"/>
		</g>
	</g>
</g>
<g id="DESIGNED_BY_FREEPIK">
	<g>
		<g id="XMLID_554_">
			<g id="XMLID_573_">
				<path id="XMLID_581_" style="fill:#292B2E;" d="M260.102,465.471c-0.432,0.443-0.803,0.932-1.108,1.453l-0.465-0.24
					c-0.068-0.297-0.35-0.502-0.66-0.467c-0.332,0.039-0.566,0.34-0.531,0.67c0.041,0.332,0.342,0.568,0.672,0.529
					c0.066-0.008,0.125-0.025,0.184-0.053l0.451,0.234c-0.25,0.555-0.432,1.139-0.541,1.744l0.748,0.131
					c0.23-1.305,0.85-2.506,1.793-3.473L260.102,465.471z"/>
				<path id="XMLID_580_" style="fill:#292B2E;" d="M265.588,463.17c-0.17,0-0.34,0.006-0.508,0.016l-0.074-0.625
					c0.188-0.15,0.297-0.389,0.266-0.645c-0.045-0.393-0.402-0.674-0.795-0.629c-0.393,0.047-0.674,0.402-0.627,0.797
					c0.029,0.254,0.188,0.461,0.404,0.563l0.072,0.625c-0.713,0.115-1.404,0.332-2.059,0.644l0.326,0.686
					c0.936-0.447,1.941-0.674,2.994-0.674c0.498,0,0.994,0.053,1.477,0.158l0.158-0.742
					C266.688,463.228,266.139,463.17,265.588,463.17z"/>
				<path id="XMLID_579_" style="fill:#292B2E;" d="M272.191,465.717c0.33-0.041,0.564-0.342,0.525-0.672
					c-0.039-0.332-0.34-0.566-0.672-0.525c-0.309,0.037-0.535,0.303-0.529,0.608l-0.416,0.363c-0.418-0.43-0.891-0.813-1.408-1.139
					l-0.406,0.641c1.137,0.715,2.023,1.727,2.566,2.926l0.688-0.313c-0.25-0.555-0.566-1.072-0.94-1.545l0.402-0.351
					C272.063,465.721,272.127,465.725,272.191,465.717z"/>
				<path id="XMLID_578_" style="fill:#292B2E;" d="M265.043,473.377c-0.387,0.023-0.775,0.035-1.158,0.035
					c-0.879,0-1.733-0.061-2.48-0.18c-0.389-0.06-0.844-0.154-1.27-0.291c1.049,1.861,3.07,3.125,5.391,3.125
					c2.855,0,5.26-1.916,5.947-4.504c-0.68,0.449-1.504,0.826-2.457,1.123C267.836,473.053,266.461,473.293,265.043,473.377z"/>
				<path id="XMLID_574_" style="fill:#292B2E;" d="M265.588,464.685c-3.352,0-6.078,2.666-6.078,5.943
					c0,0.426,0.045,0.85,0.137,1.262c0.674,0.482,2.705,0.891,5.348,0.73c2.881-0.174,5.295-0.957,6.672-2.158
					c-0.004-0.195-0.02-0.391-0.045-0.582C271.242,466.92,268.648,464.685,265.588,464.685z M263.43,471.201
					c-1.02,0-1.85-0.83-1.85-1.85c0-1.021,0.83-1.852,1.85-1.852s1.85,0.83,1.85,1.852
					C265.279,470.371,264.449,471.201,263.43,471.201z M268.168,470.293c-0.75,0-1.363-0.611-1.363-1.361s0.613-1.359,1.363-1.359
					s1.359,0.609,1.359,1.359S268.918,470.293,268.168,470.293z"/>
			</g>
			<path id="XMLID_571_" style="fill:#292B2E;" d="M281.594,466.553c-0.295-0.115-0.809-0.309-1.383-0.238
				c-0.551,0.07-0.844,0.342-0.844,1.008v0.865h2.229v1.717h-2.229v5.455h-1.932v-5.455h-1.34v-1.717h1.34v-0.889
				c0-1.68,0.895-2.781,2.568-2.781c0.643,0,1.156,0.121,1.59,0.307V466.553z"/>
			<path id="XMLID_569_" style="fill:#292B2E;" d="M286.295,469.885c-0.178-0.029-0.359-0.047-0.527-0.047
				c-0.893,0-1.508,0.549-1.508,1.613v3.908h-1.932v-7.172h1.873v0.785c0.451-0.674,1.137-0.977,2.018-0.977
				c0.416,0,0.85,0.127,1.098,0.336L286.295,469.885z"/>
			<path id="XMLID_566_" style="fill:#292B2E;" d="M293.963,471.764c0,0.221-0.016,0.488-0.037,0.65h-5.084
				c0.207,1.037,0.93,1.488,1.842,1.488c0.621,0,1.295-0.252,1.814-0.689l1.133,1.244c-0.814,0.748-1.852,1.088-3.059,1.088
				c-2.197,0-3.723-1.496-3.723-3.752c0-2.258,1.48-3.797,3.627-3.797C292.539,467.996,293.953,469.527,293.963,471.764z
				 M288.85,471.098h3.172c-0.176-0.918-0.732-1.438-1.559-1.438C289.551,469.66,289.02,470.209,288.85,471.098z"/>
			<path id="XMLID_563_" style="fill:#292B2E;" d="M301.617,471.764c0,0.221-0.016,0.488-0.037,0.65h-5.086
				c0.207,1.037,0.934,1.488,1.844,1.488c0.621,0,1.295-0.252,1.813-0.689l1.133,1.244c-0.814,0.748-1.85,1.088-3.057,1.088
				c-2.199,0-3.723-1.496-3.723-3.752c0-2.258,1.48-3.797,3.627-3.797C300.195,467.996,301.609,469.527,301.617,471.764z
				 M296.502,471.098h3.176c-0.178-0.918-0.734-1.438-1.563-1.438C297.205,469.66,296.672,470.209,296.502,471.098z"/>
			<path id="XMLID_560_" style="fill:#292B2E;" d="M309.963,471.77c0,2.154-1.496,3.775-3.475,3.775
				c-0.959,0-1.641-0.377-2.107-0.932v3.707h-1.926v-10.133h1.889v0.793c0.467-0.586,1.154-0.984,2.139-0.984
				C308.467,467.996,309.963,469.617,309.963,471.77z M304.285,471.77c0,1.133,0.748,1.977,1.844,1.977
				c1.139,0,1.85-0.881,1.85-1.977c0-1.094-0.711-1.975-1.85-1.975C305.033,469.795,304.285,470.639,304.285,471.77z"/>
			<path id="XMLID_557_" style="fill:#292B2E;" d="M313.066,465.842c0,0.695-0.541,1.229-1.236,1.229
				c-0.697,0-1.228-0.533-1.228-1.229c0-0.695,0.531-1.244,1.228-1.244C312.525,464.598,313.066,465.147,313.066,465.842z
				 M312.805,475.359h-1.93v-7.172h1.93V475.359z"/>
			<path id="XMLID_555_" style="fill:#292B2E;" d="M316.029,470.742l2.703-2.555h2.369l-3.48,3.375l3.504,3.797h-2.379l-2.717-2.9
				v2.9h-1.932v-10.658h1.932V470.742z"/>
		</g>
		<g>
			<path style="fill:#292B2E;" d="M184.414,475.295v-1.055c-0.527,0.719-1.395,1.23-2.389,1.23c-1.844,0-3.146-1.406-3.146-3.705
				c0-2.256,1.289-3.721,3.146-3.721c0.953,0,1.816,0.469,2.389,1.244v-3.764h1.098v9.77H184.414z M184.414,473.377v-3.209
				c-0.396-0.615-1.246-1.143-2.125-1.143c-1.42,0-2.27,1.172-2.27,2.74c0,1.566,0.85,2.725,2.27,2.725
				C183.168,474.49,184.018,473.992,184.414,473.377z"/>
			<path style="fill:#292B2E;" d="M186.934,471.75c0-2.051,1.465-3.705,3.486-3.705c2.139,0,3.398,1.67,3.398,3.793v0.279h-5.73
				c0.09,1.332,1.027,2.445,2.551,2.445c0.807,0,1.627-0.322,2.182-0.893l0.529,0.717c-0.703,0.703-1.656,1.084-2.813,1.084
				C188.441,475.471,186.934,473.963,186.934,471.75z M190.404,468.953c-1.508,0-2.256,1.273-2.316,2.357h4.646
				C192.719,470.256,192.016,468.953,190.404,468.953z"/>
			<path style="fill:#292B2E;" d="M194.609,474.357l0.57-0.791c0.469,0.543,1.363,1.012,2.326,1.012
				c1.088,0,1.674-0.514,1.674-1.217c0-1.713-4.381-0.658-4.381-3.281c0-1.098,0.951-2.035,2.637-2.035
				c1.199,0,2.049,0.453,2.623,1.025l-0.514,0.762c-0.424-0.514-1.201-0.895-2.109-0.895c-0.967,0-1.566,0.484-1.566,1.113
				c0,1.553,4.379,0.527,4.379,3.281c0,1.188-0.951,2.139-2.783,2.139C196.309,475.471,195.326,475.119,194.609,474.357z"/>
			<path style="fill:#292B2E;" d="M201.479,466.477c0-0.41,0.338-0.746,0.732-0.746c0.41,0,0.744,0.336,0.744,0.746
				c0,0.41-0.334,0.732-0.744,0.732C201.816,467.209,201.479,466.887,201.479,466.477z M201.668,475.295v-7.074h1.1v7.074H201.668z"
				/>
			<path style="fill:#292B2E;" d="M204.584,477.111l0.555-0.82c0.588,0.703,1.291,0.967,2.301,0.967c1.172,0,2.271-0.57,2.271-2.123
				v-1.012c-0.514,0.719-1.377,1.26-2.373,1.26c-1.846,0-3.15-1.377-3.15-3.662c0-2.27,1.289-3.676,3.15-3.676
				c0.951,0,1.801,0.469,2.373,1.244v-1.068h1.098v6.869c0,2.344-1.641,3.076-3.369,3.076
				C206.236,478.166,205.418,477.932,204.584,477.111z M209.711,473.26v-3.092c-0.381-0.615-1.23-1.143-2.109-1.143
				c-1.422,0-2.271,1.129-2.271,2.695c0,1.553,0.85,2.695,2.271,2.695C208.48,474.416,209.33,473.875,209.711,473.26z"/>
			<path style="fill:#292B2E;" d="M217.414,475.295v-4.629c0-1.244-0.629-1.641-1.582-1.641c-0.863,0-1.684,0.527-2.096,1.1v5.17
				h-1.098v-7.074h1.098v1.025c0.5-0.586,1.465-1.201,2.52-1.201c1.48,0,2.258,0.746,2.258,2.285v4.965H217.414z"/>
			<path style="fill:#292B2E;" d="M219.934,471.75c0-2.051,1.465-3.705,3.486-3.705c2.139,0,3.398,1.67,3.398,3.793v0.279h-5.727
				c0.088,1.332,1.025,2.445,2.547,2.445c0.807,0,1.627-0.322,2.182-0.893l0.529,0.717c-0.703,0.703-1.654,1.084-2.813,1.084
				C221.443,475.471,219.934,473.963,219.934,471.75z M223.404,468.953c-1.508,0-2.254,1.273-2.313,2.357h4.643
				C225.719,470.256,225.018,468.953,223.404,468.953z"/>
			<path style="fill:#292B2E;" d="M233.352,475.295v-1.055c-0.529,0.719-1.391,1.23-2.387,1.23c-1.848,0-3.15-1.406-3.15-3.705
				c0-2.256,1.289-3.721,3.15-3.721c0.951,0,1.816,0.469,2.387,1.244v-3.764h1.1v9.77H233.352z M233.352,473.377v-3.209
				c-0.396-0.615-1.246-1.143-2.123-1.143c-1.424,0-2.273,1.172-2.273,2.74c0,1.566,0.85,2.725,2.273,2.725
				C232.105,474.49,232.955,473.992,233.352,473.377z"/>
			<path style="fill:#292B2E;" d="M239.693,475.295v-9.77h1.1v3.764c0.568-0.775,1.416-1.244,2.383-1.244
				c1.844,0,3.15,1.465,3.15,3.721c0,2.299-1.307,3.705-3.15,3.705c-0.996,0-1.857-0.512-2.383-1.23v1.055H239.693z M242.898,474.49
				c1.436,0,2.283-1.158,2.283-2.725c0-1.568-0.848-2.74-2.283-2.74c-0.865,0-1.729,0.527-2.105,1.143v3.209
				C241.17,473.992,242.033,474.49,242.898,474.49z"/>
			<path style="fill:#292B2E;" d="M247.527,477.068c0.158,0.072,0.424,0.117,0.6,0.117c0.482,0,0.805-0.162,1.053-0.748l0.469-1.068
				l-2.957-7.148h1.188l2.355,5.801l2.346-5.801h1.201l-3.547,8.51c-0.424,1.025-1.143,1.422-2.078,1.435
				c-0.236,0-0.6-0.043-0.807-0.103L247.527,477.068z"/>
		</g>
	</g>
</g>
</svg>
